<svg xmlns="http://www.w3.org/2000/svg" xmlns:xlink="http://www.w3.org/1999/xlink" width="375" height="320" viewBox="0 0 375 320"><defs><clipPath id="a"><path d="M0,113.319V0H233.249V113.319c0,10.137-52.215,18.354-116.624,18.354S0,123.456,0,113.319Z" transform="translate(0)" fill="#d9dfe2"/></clipPath><clipPath id="b"><rect width="112.271" height="112.274" rx="56.135" transform="translate(0 0)" fill="#1dacff"/></clipPath><clipPath id="c"><rect width="67.354" height="87.933" fill="none"/></clipPath><clipPath id="e"><rect width="28.554" height="77.94" fill="none"/></clipPath><clipPath id="f"><rect width="4.489" height="9.992" fill="none"/></clipPath></defs><g transform="translate(0 -160)"><g transform="translate(0 159.75)"><rect width="375" height="320" transform="translate(0 0.25)" fill="none"/><g transform="translate(31.226 67.18)"><path d="M170.218,485.685H26.354c-1.372,0-2.483-1.592-2.483-3.556s1.112-3.556,2.483-3.556H170.218c1.372,0,2.483,1.592,2.483,3.556S171.59,485.685,170.218,485.685Z" transform="translate(139.846 -390.893)" fill="#dcbb82"/><path d="M224.625,414.8l-.1-.114a22.6,22.6,0,0,0-20.7-7.756,35.7,35.7,0,0,0-4.651-6.679,30.47,30.47,0,0,0-17.82-10.133c-7.036-9.323-17.5-15.243-29.192-15.243s-22.156,5.92-29.192,15.243a30.469,30.469,0,0,0-17.82,10.133,35.7,35.7,0,0,0-4.651,6.679,22.594,22.594,0,0,0-20.7,7.756l-.1.114a8,8,0,0,0-1.953,5.528H226.579A8,8,0,0,0,224.625,414.8Z" transform="translate(85.967 -329.318)" fill="#dcbb82"/><path d="M321.025,414.8l-.1-.114a22.6,22.6,0,0,0-20.7-7.756,35.7,35.7,0,0,0-4.651-6.679,30.474,30.474,0,0,0-17.82-10.133c-7.036-9.323-17.5-15.243-29.192-15.243a34.194,34.194,0,0,0-8,.946,37.427,37.427,0,0,1,19.8,12.555,6.865,6.865,0,0,0,3.617,2.2,30.779,30.779,0,0,1,15.591,9.669,34.8,34.8,0,0,1,2.676,3.439,6.727,6.727,0,0,0,5.537,2.953,22.9,22.9,0,0,1,17.134,8.042l.1.114a8,8,0,0,1,1.953,5.528h16A8,8,0,0,0,321.025,414.8Z" transform="translate(-10.433 -329.318)" fill="#d1a459"/><ellipse cx="116.625" cy="18.183" rx="116.625" ry="18.183" transform="translate(38.56 94.643)" fill="#cddfe8"/><g transform="translate(38.56 0)" clip-path="url(#a)"><g transform="translate(50.868 3.194)"><path d="M11.886,0S31.457,31.567,43.538,38.332,24.325,51.77,6.686,41.864,11.886,0,11.886,0Z" transform="matrix(0.438, -0.899, 0.899, 0.438, 79.494, 88.889)" fill="#1ca3f2"/><path d="M2.263,13.184c3.089,1.644,7.219.432,10.238-1.616s1.84-6.576,1.84-6.576-.551-3.152-3.28-4.2a9.644,9.644,0,0,0-7.637,0C.7,1.839.145,4.991.145,4.991S-.826,11.54,2.263,13.184Z" transform="translate(118.86 152.708) rotate(135)" fill="#f9ce1b"/><path d="M0,6.218S14.378,10.31,22.632,1.585s8.24,21.085-2.472,28.238S0,6.218,0,6.218Z" transform="matrix(0.966, -0.259, 0.259, 0.966, 68.676, 38.419)" fill="#1ca3f2"/><rect width="112.271" height="112.274" rx="56.135" transform="matrix(0.966, -0.259, 0.259, 0.966, 3.174, 52.637)" fill="#1dacff"/><path d="M27.692,6.218S13.74,10.31,5.731,1.585s-8,21.085,2.4,28.238S27.692,6.218,27.692,6.218Z" transform="translate(8.889 73.779) rotate(-30)" fill="#1dacff"/><path d="M2.263.767C5.352-.877,9.482.335,12.5,2.383s1.84,6.576,1.84,6.576-.551,3.152-3.28,4.2a9.644,9.644,0,0,1-7.637,0C.7,12.112.145,8.96.145,8.96S-.826,2.411,2.263.767Z" transform="translate(30.638 149.009) rotate(-15)" fill="#f9ce1b"/><path d="M12.552,19.248a1.356,1.356,0,0,1-.732-.219L8.39,16.867a.058.058,0,0,0-.063,0L4.9,19.03a1.374,1.374,0,0,1-.732.219,1.485,1.485,0,0,1-1.2-.675,2.152,2.152,0,0,1-.344-1.53l.655-4.581a.092.092,0,0,0-.019-.072L.476,9.146a2.14,2.14,0,0,1-.4-1.932A1.674,1.674,0,0,1,1.347,5.931l3.836-.668a.07.07,0,0,0,.051-.044L6.949,1.051A1.562,1.562,0,0,1,8.359,0,1.562,1.562,0,0,1,9.768,1.051l1.715,4.168a.07.07,0,0,0,.051.044l3.836.668a1.674,1.674,0,0,1,1.269,1.283,2.14,2.14,0,0,1-.4,1.932L13.465,12.39a.092.092,0,0,0-.019.072l.655,4.581a2.152,2.152,0,0,1-.344,1.53,1.485,1.485,0,0,1-1.2.675" transform="matrix(0.966, -0.259, 0.259, 0.966, 94.132, 111.363)" fill="#7dcfff"/><path d="M9.694,14.865a1.047,1.047,0,0,1-.565-.169l-2.649-1.67a.045.045,0,0,0-.049,0L3.781,14.7a1.061,1.061,0,0,1-.565.169,1.147,1.147,0,0,1-.93-.522,1.662,1.662,0,0,1-.266-1.182l.506-3.538a.071.071,0,0,0-.015-.056L.367,7.063A1.653,1.653,0,0,1,.06,5.571a1.293,1.293,0,0,1,.98-.991L4,4.064a.054.054,0,0,0,.039-.034L5.367.811A1.206,1.206,0,0,1,6.455,0,1.206,1.206,0,0,1,7.544.811L8.868,4.03a.054.054,0,0,0,.039.034l2.962.516a1.293,1.293,0,0,1,.98.991,1.653,1.653,0,0,1-.307,1.492L10.4,9.569a.071.071,0,0,0-.015.055l.506,3.538a1.662,1.662,0,0,1-.266,1.182,1.147,1.147,0,0,1-.93.522" transform="matrix(0.966, -0.259, 0.259, 0.966, 110.701, 101.528)" fill="#41b9ff" opacity="0"/><path d="M9.694,14.865a1.047,1.047,0,0,1-.565-.169l-2.649-1.67a.045.045,0,0,0-.049,0L3.781,14.7a1.061,1.061,0,0,1-.565.169,1.147,1.147,0,0,1-.93-.522,1.662,1.662,0,0,1-.266-1.182l.506-3.538a.071.071,0,0,0-.015-.056L.367,7.063A1.653,1.653,0,0,1,.06,5.571a1.293,1.293,0,0,1,.98-.991L4,4.064a.054.054,0,0,0,.039-.034L5.367.811A1.206,1.206,0,0,1,6.455,0,1.206,1.206,0,0,1,7.544.811L8.868,4.03a.054.054,0,0,0,.039.034l2.962.516a1.293,1.293,0,0,1,.98.991,1.653,1.653,0,0,1-.307,1.492L10.4,9.569a.071.071,0,0,0-.015.055l.506,3.538a1.662,1.662,0,0,1-.266,1.182,1.147,1.147,0,0,1-.93.522" transform="matrix(0.966, -0.259, 0.259, 0.966, 73.737, 111.431)" fill="#41b9ff" opacity="0"/><g transform="matrix(0.966, -0.259, 0.259, 0.966, 3.174, 52.636)" clip-path="url(#b)"><path d="M59.921,57.132c-4.417-1.451-8.483-5.39-11.509-10.275-1.126-1.27-2.231-2.261-4.1-2.313-3.055.085-4.067,2.678-6.471,4.9-2.763,3.662-6.135,6.5-9.741,7.689C16.431,60.965,4.212,51.449.808,35.877S5.209,4.212,15.774.742c.226-.074.454-.141.68-.2L16.447.49a22.164,22.164,0,0,1,12.324.845c6.832,2.3,8.472,5.732,15.24,5.975,6.768-.243,8.408-3.675,15.239-5.975A22.167,22.167,0,0,1,71.575.49l-.007.053q.34.087.679.2c10.565,3.47,18.37,19.564,14.967,35.135-2.895,13.241-12.162,22.1-22.047,22.1A16.761,16.761,0,0,1,59.921,57.132Z" transform="translate(31.079 20.721)" fill="#7dcfff"/></g><g transform="matrix(0.966, -0.259, 0.259, 0.966, 44.636, 68.089)"><g transform="translate(0 0)"><ellipse cx="19.129" cy="24.418" rx="19.129" ry="24.418" transform="translate(0 0)" fill="#fff"/><ellipse cx="19.129" cy="24.418" rx="19.129" ry="24.418" transform="translate(41.96 0)" fill="#fff"/></g><ellipse cx="8.733" cy="10.799" rx="8.733" ry="10.799" transform="translate(13.795 14.156)" fill="#002840"/><ellipse cx="3.674" cy="4.543" rx="3.674" ry="4.543" transform="translate(17.332 16.743)" fill="#fff"/><path d="M8.733,0c4.823,0,8.733,4.835,8.733,10.8s-3.91,10.8-8.733,10.8S0,16.763,0,10.8,3.91,0,8.733,0Z" transform="translate(49.508 14.156)" fill="#002840"/><ellipse cx="3.674" cy="4.543" rx="3.674" ry="4.543" transform="translate(52.871 16.743)" fill="#fff"/></g><path d="M3.615,2C4.662-.667,8.963-.667,10.01,2l3.41,8.688c.756,1.926-.624,3.575-3.137,4.767a7.133,7.133,0,0,1-6.914,0C.85,14.264-.551,12.616.2,10.689Z" transform="matrix(-0.545, 0.839, -0.839, -0.545, 107.22, 96.825)" fill="#f9ce1b"/><g transform="matrix(0.899, -0.438, 0.438, 0.899, 0, 33.875)"><path d="M35.877,0C16.063,0,0,14.039,0,31.357v7.236H71.755V31.357C71.755,14.039,55.692,0,35.877,0Z" transform="translate(2.76 2.377)" fill="#ffdc64"/><path d="M75.895,38.039H22.078A1.3,1.3,0,0,1,20.7,36.85V30.907a36.61,36.61,0,0,1,3.334-15.452.906.906,0,0,1,1.647.161l2.9,14.506A2.676,2.676,0,0,0,31.3,32.1H45.972a2.677,2.677,0,0,0,2.72-1.974l5.425-27.1a41.148,41.148,0,0,0-30.292-.256v0c-.027.011-.661.283-.661.283C11.1,8.022,2.76,18.616,2.76,30.906v7.132H1.38A1.3,1.3,0,0,0,0,39.227v1.515a1.213,1.213,0,0,0,.941,1.133c9.87,2.78,23.12,4.484,37.7,4.484s27.827-1.7,37.7-4.484a1.213,1.213,0,0,0,.941-1.133V39.227A1.3,1.3,0,0,0,75.895,38.039Z" transform="translate(0 2.377)" fill="#ffc850"/><path d="M9.656,34.473H3.949a2.607,2.607,0,0,1-2.758-2.3L0,2.459A2.574,2.574,0,0,1,2.76,0h8.086A2.574,2.574,0,0,1,13.6,2.459l-1.19,29.718A2.607,2.607,0,0,1,9.656,34.473Z" transform="translate(31.835 0)" fill="#fff082"/><g transform="translate(0 0)"><path d="M76.334.6c-9.87,1.986-23.12,3.2-37.7,3.2S10.81,2.581.941.6A1.163,1.163,0,0,1,.054,0,1,1,0,0,0,0,.232V1.747A1.213,1.213,0,0,0,.941,2.88c9.87,2.78,23.12,4.484,37.7,4.484s27.827-1.7,37.7-4.484a1.213,1.213,0,0,0,.941-1.133V.232A1,1,0,0,0,77.22,0,1.162,1.162,0,0,1,76.334.6Z" transform="translate(0 41.373)" fill="#ffdc64"/><path d="M4.888,32.177,4.044,2.459A2.216,2.216,0,0,1,6,0H2.76A2.574,2.574,0,0,0,0,2.459L1.191,32.177a2.607,2.607,0,0,0,2.758,2.3h2.9A2.182,2.182,0,0,1,4.888,32.177Z" transform="translate(31.835)" fill="#ffdc64"/></g></g><path d="M40.9,30.549S12.734,15.082,2.068,10.03,24.565-6.376,42.7,4.671,40.9,30.549,40.9,30.549Z" transform="matrix(-0.999, 0.052, -0.052, -0.999, 91.101, 136.4)" fill="#1ca3f2"/><g transform="translate(72.095 67.806) rotate(-9)"><path d="M49.534,0,54.84,5.305,5.305,54.841,0,49.535Zm0,0" transform="translate(25.254)" fill="#eed2a1"/><path d="M46.352,0,44.23,2.122l2.122,2.122a1.5,1.5,0,0,1,0,2.122L0,52.718l2.122,2.123L51.657,5.305Zm0,0" transform="translate(28.437 0.001)" fill="#dcbb82"/><path d="M32.328,11.949,23.308,2.93a10,10,0,0,0-14.147,0L1.026,11.065a3.5,3.5,0,0,0,0,4.952L19.24,34.233a3.5,3.5,0,0,0,4.952,0L32.327,26.1a10,10,0,0,0,0-14.148Zm-11.661,13.1L10.211,14.591a1.485,1.485,0,0,1,0-2.1l4.255-4.255a2.5,2.5,0,0,1,3.536,0l9.019,9.019a2.5,2.5,0,0,1,0,3.537l-4.255,4.255a1.484,1.484,0,0,1-2.1,0Zm0,0" transform="translate(0 44.66)" fill="#566e94"/><path d="M32.328,2.652,29.675,0a10,10,0,0,1,0,14.147L23.662,20.16a3,3,0,0,1-4.244,0L1.026,1.768a3.5,3.5,0,0,0,0,4.952L19.24,24.936a3.5,3.5,0,0,0,4.952,0L32.327,16.8a10,10,0,0,0,0-14.148Zm0,0" transform="translate(0 53.957)" fill="#465a7a"/></g><path d="M35.848,40.079C32.588,17.427,14.484,16,2.4,9.236S26.766-7.976,45.82,9.951,38.117,57.272,35.848,40.079Z" transform="translate(93.43 126.758) rotate(161)" fill="#1dacff"/><g transform="matrix(0.966, -0.259, 0.259, 0.966, 28.46, 92.774)"><path d="M7.544.373a1.36,1.36,0,0,0-1.871,0C4.694,1.3,0,11.431,0,14.847a6.8,6.8,0,1,0,13.6,0C13.6,11.431,8.523,1.3,7.544.373Z" transform="translate(0 0)" fill="#7dcfff"/><ellipse cx="2.907" cy="3.402" rx="2.907" ry="3.402" transform="translate(5.673 10.823)" fill="#fff"/></g></g></g><g transform="translate(0 94.256)"><g transform="translate(10.839 0)"><path d="M66.721,100H58.144c-1.184,0-2.144.637-2.144,1.423v65.451c0,.786.96,1.423,2.144,1.423h8.577c1.184,0,2.144-.637,2.144-1.423V101.423C68.866,100.637,67.906,100,66.721,100Z" transform="translate(-49.567 -76.413)" fill="#566e94"/><path d="M50.721,12A10.733,10.733,0,0,0,40,22.721V31.3a2.144,2.144,0,0,0,2.144,2.144H59.3A2.144,2.144,0,0,0,61.443,31.3V22.721A10.733,10.733,0,0,0,50.721,12Z" transform="translate(-37.856 -12)" fill="#faec70"/><path d="M46.433,31.3V22.721a10.74,10.74,0,0,1,7.5-10.228A10.722,10.722,0,0,0,40,22.721V31.3a2.144,2.144,0,0,0,2.144,2.144h6.433A2.144,2.144,0,0,1,46.433,31.3Z" transform="translate(-37.856 -12)" fill="#f7e011"/><path d="M55.587,84H34.144A2.144,2.144,0,0,0,32,86.144v6.433a2.144,2.144,0,0,0,2.144,2.144H55.587a2.144,2.144,0,0,0,2.144-2.144V86.144A2.144,2.144,0,0,0,55.587,84Z" transform="translate(-32 -64.702)" fill="#f6c97d"/><path d="M38.433,92.577V86.144A2.144,2.144,0,0,1,40.577,84H34.144A2.144,2.144,0,0,0,32,86.144v6.433a2.144,2.144,0,0,0,2.144,2.144h6.433A2.144,2.144,0,0,1,38.433,92.577Z" transform="translate(-32 -64.702)" fill="#f0a526"/></g><g transform="translate(89.582 0)"><path d="M418.721,100h-8.577c-1.184,0-2.144.637-2.144,1.423V166.86c0,.786.96,1.423,2.144,1.423h8.577c1.184,0,2.144-.637,2.144-1.423V101.423C420.866,100.637,419.906,100,418.721,100Z" transform="translate(-401.567 -76.769)" fill="#566e94"/><path d="M402.721,12A10.653,10.653,0,0,0,392,22.56v8.448a2.128,2.128,0,0,0,2.144,2.112H411.3a2.128,2.128,0,0,0,2.144-2.112V22.56A10.653,10.653,0,0,0,402.721,12Z" transform="translate(-389.856 -12)" fill="#ffdc64"/><path d="M398.433,31.007V22.56a10.6,10.6,0,0,1,7.5-10.073A10.83,10.83,0,0,0,402.721,12,10.653,10.653,0,0,0,392,22.56v8.448a2.128,2.128,0,0,0,2.144,2.112h6.433A2.128,2.128,0,0,1,398.433,31.007Z" transform="translate(-389.856 -12)" fill="#fff082"/><path d="M407.587,84H386.144A2.128,2.128,0,0,0,384,86.112v6.336a2.128,2.128,0,0,0,2.144,2.112h21.443a2.128,2.128,0,0,0,2.144-2.112V86.112A2.128,2.128,0,0,0,407.587,84Z" transform="translate(-384 -64.993)" fill="#f6c97d"/><path d="M390.433,92.448V86.112A2.128,2.128,0,0,1,392.577,84h-6.433A2.128,2.128,0,0,0,384,86.112v6.336a2.128,2.128,0,0,0,2.144,2.112h6.433A2.128,2.128,0,0,1,390.433,92.448Z" transform="translate(-384 -64.993)" fill="#f0a526"/></g><g transform="translate(0 38.597)"><path d="M121.955,156H1.936A2.048,2.048,0,0,0,0,158.144V175.3c0,1.184.867,0,1.936,0H121.955c1.069,0,1.936,1.184,1.936,0V158.144A2.048,2.048,0,0,0,121.955,156Z" transform="translate(0 -156)" fill="#d9dfe2"/><path d="M0,212v4.289a2.048,2.048,0,0,0,1.936,2.144h5.1l11.849-3.216,9.18,3.216h93.889a2.048,2.048,0,0,0,1.936-2.144V212Z" transform="translate(0 -196.99)" fill="#cdcdcd"/><g transform="translate(6.885)"><path d="M66,156,52.453,171.01H73.789L87.339,156Z" transform="translate(-46.646 -156)" fill="#e87764"/><path d="M28.453,218.433H49.789L55.6,212H34.26Z" transform="translate(-28.453 -196.99)" fill="#e76254"/><path d="M173.462,218.433H194.8L200.605,212H179.269Z" transform="translate(-138.374 -196.99)" fill="#e76254"/><path d="M211.013,156l-13.551,15.01H218.8L232.348,156Z" transform="translate(-156.566 -156)" fill="#e87764"/><path d="M377.357,156H356.022l-13.55,15.01h21.336Z" transform="translate(-266.487 -156)" fill="#e87764"/><path d="M324.279,212l-5.807,6.433h21.336L345.614,212Z" transform="translate(-248.294 -196.99)" fill="#e76254"/></g></g></g><g transform="translate(238.133 80.43)"><g clip-path="url(#c)"><rect width="67.354" height="9.992" rx="4" transform="translate(0 77.94)" fill="#ffc850"/><g clip-path="url(#c)"><path d="M58.511,10.345A12.783,12.783,0,0,0,45.963,0H45.75A12.783,12.783,0,0,0,33.2,10.345L30.784,22.782H60.928Z" transform="translate(-12.179)" fill="#ffdc64"/><path d="M13.049,118.547H64.63l-3.093-15.912h-45.4Z" transform="translate(-5.163 -40.606)" fill="#ffdc64"/><path d="M24.96,58.2,22.149,72.664H62.73L59.92,58.2Z" transform="translate(-8.763 -23.026)" fill="#ffdc64"/><path d="M63.56,94.53H18.154l2.414-12.391H61.145Z" transform="translate(-7.182 -32.498)" fill="#566e94"/><path d="M61.754,50.087H26.8L29.2,37.7H59.356Z" transform="translate(-10.605 -14.914)" fill="#566e94"/><g transform="translate(7.886)" opacity="0.2" style="mix-blend-mode:screen;isolation:isolate"><g clip-path="url(#e)"><path d="M41.6.288a12.734,12.734,0,0,0-9.912,10.056l-2.43,12.438-2.4,12.391L23.889,50.425,21.635,62.032,18.549,77.94h-5.5l3.086-15.908,2.254-11.607,2.973-15.252,2.4-12.391,2.43-12.438A12.772,12.772,0,0,1,38.725,0h.224A12.178,12.178,0,0,1,41.6.288" transform="translate(-13.049)" fill="#fffeff"/></g></g><g transform="translate(0 77.94)" opacity="0.2" style="mix-blend-mode:screen;isolation:isolate"><g clip-path="url(#f)"><rect width="4.489" height="9.992" transform="translate(0 0)" fill="#fffeff"/></g></g></g></g></g></g></g><g transform="translate(-3 -4)"><path d="M12.433,36.126.52,24.213a1.777,1.777,0,0,1,0-2.513L15.648,6.573a22.442,22.442,0,0,1,20.889-6L44.495,2.4a2.22,2.22,0,0,1,1.667,1.667l1.827,7.958a22.437,22.437,0,0,1-6,20.889L26.859,48.039a1.777,1.777,0,0,1-2.513,0Zm0,0" transform="translate(256 268.999) rotate(-9)" fill="#cdcdcd"/><path d="M25.746,29.714a22.439,22.439,0,0,0,6-20.889L29.921.867A2.215,2.215,0,0,0,29.507,0a22.43,22.43,0,0,1-6.458,13.689L0,36.736l8.105,8.105a1.777,1.777,0,0,0,2.513,0Zm0,0" transform="translate(272.541 269.617) rotate(-9)" fill="#bebebe"/><path d="M5.624,15.98l-5.1-5.1a1.777,1.777,0,0,1,0-2.513L7.832,1.051a3.59,3.59,0,0,1,5.077,0L15.448,3.59a3.589,3.589,0,0,1,0,5.077L8.136,15.98a1.777,1.777,0,0,1-2.513,0Zm0,0" transform="translate(264.839 295.399) rotate(-9)" fill="#566e94"/><path d="M11.107,2.539,8.568,0a3.59,3.59,0,0,1,0,5.077L0,13.645l1.283,1.283a1.776,1.776,0,0,0,2.512,0l7.312-7.312A3.59,3.59,0,0,0,11.107,2.539Zm0,0" transform="translate(269.292 295.76) rotate(-9)" fill="#465a7a"/></g></g></svg>