<svg xmlns="http://www.w3.org/2000/svg" xmlns:xlink="http://www.w3.org/1999/xlink" width="375" height="320" viewBox="0 0 375 320"><defs><clipPath id="a"><rect width="145.373" height="71.791" fill="none"/></clipPath><clipPath id="b"><rect width="81.618" height="71.656" fill="#fadb1b"/></clipPath><clipPath id="c"><rect width="81.619" height="71.656" fill="#fadb1b"/></clipPath><clipPath id="d"><rect width="43.349" height="33.61" fill="#fadb1b"/></clipPath><clipPath id="e"><rect width="54.401" height="43.438" fill="#fadb1b"/></clipPath></defs><g transform="translate(0 -160)"><g transform="matrix(0.966, -0.259, 0.259, 0.966, -2508.568, -3453.815)"><ellipse cx="45.531" cy="5.803" rx="45.531" ry="5.803" transform="matrix(0.966, 0.259, -0.259, 0.966, 1607.237, 4395.34)" fill="#002840" opacity="0.15"/><g transform="translate(1576.635 4274.363)"><g transform="translate(0 0)"><path d="M11.509,77.9s36.6-19.625,52.078-19.422S52.495,34.722,29.878,34.453,11.509,77.9,11.509,77.9Z" transform="translate(88.149 102.286) rotate(162)" fill="#1dacff"/><path d="M13.289,0s21.883,35.3,35.391,42.859S27.2,57.883,7.476,46.808,13.289,0,13.289,0Z" transform="matrix(0.891, 0.454, -0.454, 0.891, 131.107, 31.158)" fill="#1dacff"/><rect width="125.529" height="125.533" rx="62.765" transform="translate(24.35 0)" fill="#1dacff"/><g transform="translate(27.159 3.601)"><path d="M-404.892,8937.356s16.076,4.575,25.3-5.181,9.213,23.575-2.764,31.573S-404.892,8937.356-404.892,8937.356Z" transform="translate(492.895 -8930.404)" fill="#1dacff"/><path d="M-373.93,8937.356s-15.6,4.575-24.554-5.181-8.94,23.575,2.682,31.573S-373.93,8937.356-373.93,8937.356Z" transform="translate(404.892 -8930.404)" fill="#1dacff"/></g><path d="M2.53,14.741c3.454,1.838,8.071.483,11.448-1.807s2.058-7.353,2.058-7.353-.616-3.525-3.668-4.7a10.783,10.783,0,0,0-8.539,0C.778,2.056.162,5.581.162,5.581S-.924,12.9,2.53,14.741Z" transform="translate(105.508 145.463) rotate(180)" fill="#f9ce1b"/><path d="M2.53.858C5.984-.98,10.6.375,13.978,2.665s2.058,7.353,2.058,7.353-.616,3.525-3.668,4.7a10.783,10.783,0,0,1-8.539,0c-3.052-1.175-3.668-4.7-3.668-4.7S-.924,2.7,2.53.858Z" transform="translate(50.99 115.257) rotate(30)" fill="#f9ce1b"/><path d="M16.829,21.522a2.089,2.089,0,0,1-.981-.244l-4.6-2.418a.091.091,0,0,0-.085,0l-4.6,2.418a2.106,2.106,0,0,1-3.057-2.221l.878-5.122a.091.091,0,0,0-.026-.08L.638,10.226A2.107,2.107,0,0,1,1.806,6.632l5.143-.747a.09.09,0,0,0,.068-.05l2.3-4.66a2.107,2.107,0,0,1,3.779,0l2.3,4.66a.091.091,0,0,0,.068.05l5.142.747a2.107,2.107,0,0,1,1.168,3.594l-3.721,3.628a.091.091,0,0,0-.026.08l.878,5.122a2.109,2.109,0,0,1-2.077,2.466" transform="translate(75.908 90.671)" fill="#7dcfff"/><path d="M13,16.62a1.613,1.613,0,0,1-.757-.189L8.687,14.564a.071.071,0,0,0-.065,0L5.07,16.432a1.627,1.627,0,0,1-2.361-1.716l.678-3.956a.071.071,0,0,0-.02-.062L.493,7.9a1.627,1.627,0,0,1,.9-2.776l3.972-.577a.07.07,0,0,0,.053-.038L7.2.907a1.627,1.627,0,0,1,2.919,0l1.776,3.6a.07.07,0,0,0,.053.038l3.971.577a1.627,1.627,0,0,1,.9,2.776l-2.874,2.8a.07.07,0,0,0-.02.062l.678,3.956a1.629,1.629,0,0,1-1.6,1.9" transform="translate(104.113 84.811)" fill="#41b9ff" opacity="0"/><path d="M13,16.62a1.613,1.613,0,0,1-.757-.189L8.687,14.564a.071.071,0,0,0-.065,0L5.07,16.432a1.627,1.627,0,0,1-2.361-1.716l.678-3.956a.071.071,0,0,0-.02-.062L.493,7.9a1.627,1.627,0,0,1,.9-2.776l3.972-.577a.07.07,0,0,0,.053-.038L7.2.907a1.627,1.627,0,0,1,2.919,0l1.776,3.6a.07.07,0,0,0,.053.038l3.971.577a1.627,1.627,0,0,1,.9,2.776l-2.874,2.8a.07.07,0,0,0-.02.062l.678,3.956a1.629,1.629,0,0,1-1.6,1.9" transform="translate(52.806 84.811)" fill="#41b9ff" opacity="0"/><g transform="translate(28.326 23.168)"><path d="M80.041,63.81c-5.9-1.621-11.331-6.02-15.374-11.476a7.693,7.693,0,0,0-5.477-2.583c-4.08.1-5.433,2.991-8.643,5.471A28.19,28.19,0,0,1,37.535,63.81C21.948,68.09,5.626,57.462,1.079,40.07S6.958,4.7,21.07.829c.3-.083.606-.157.909-.222L21.969.547s7-1.723,16.463.944c9.126,2.57,11.316,6.4,20.357,6.674,9.04-.272,11.231-4.1,20.356-6.674C88.609-1.175,95.608.547,95.608.547L95.6.607q.454.1.908.222C110.618,4.7,121.044,22.679,116.5,40.071c-3.867,14.789-16.246,24.688-29.45,24.687A26.424,26.424,0,0,1,80.041,63.81Z" transform="translate(0 0)" fill="#7dcfff"/><g transform="translate(3.401 5.519)"><g transform="translate(0 0)"><ellipse cx="26.293" cy="27.141" rx="26.293" ry="27.141" transform="translate(0 0)" fill="#fff"/><ellipse cx="26.293" cy="27.141" rx="26.293" ry="27.141" transform="translate(57.675 0)" fill="#fff"/></g><ellipse cx="12.003" cy="12.003" rx="12.003" ry="12.003" transform="translate(10.163 21.525)" fill="#002840"/><ellipse cx="5.049" cy="5.049" rx="5.049" ry="5.049" transform="translate(15.024 24.401)" fill="#fff"/><path d="M12,0A12,12,0,1,1,0,12,12,12,0,0,1,12,0Z" transform="translate(66.048 19.339)" fill="#002840"/><ellipse cx="5.049" cy="5.049" rx="5.049" ry="5.049" transform="translate(70.671 22.215)" fill="#fff"/></g></g></g><path d="M4.042,2.237c1.171-2.983,5.979-2.983,7.15,0l3.813,9.714c.845,2.154-.7,4-3.507,5.33a7.975,7.975,0,0,1-7.731,0C.95,15.949-.616,14.105.229,11.952Z" transform="translate(94.984 88.027) rotate(180)" fill="#f9ce1b"/></g><path d="M1.915,19.987a2.5,2.5,0,0,1-2.31-1.542C-5.133,7.034-.427-.96-.224-1.295L4.053,1.295l.01-.017a13.425,13.425,0,0,0-1.34,4.24,20.129,20.129,0,0,0,1.5,11.009,2.5,2.5,0,0,1-2.308,3.459Z" transform="translate(1575.569 4359.177) rotate(-28)" fill="#d9dfe2" opacity="0"/><path d="M3.426,36.273a2.5,2.5,0,0,1-2.316-1.56A56.356,56.356,0,0,1-1.938,22.783a48.6,48.6,0,0,1-.377-11.512A33.432,33.432,0,0,1,1.211-1.157,2.5,2.5,0,0,1,4.584-2.216,2.5,2.5,0,0,1,5.642,1.157c-3.654,7-3.458,15.163-2.651,20.783a52.4,52.4,0,0,0,2.753,10.9,2.5,2.5,0,0,1-2.318,3.437Z" transform="translate(1559.419 4356.956) rotate(-28)" fill="#d9dfe2" opacity="0"/></g><rect width="375" height="320" transform="translate(0 160)" fill="none"/><g transform="translate(42.918 329.362)"><ellipse cx="56.267" cy="5.105" rx="56.267" ry="5.105" transform="translate(23.001 66.428)" fill="#002840" opacity="0.1"/><ellipse cx="1.389" cy="1.625" rx="1.389" ry="1.625" transform="translate(0 37.239)" fill="#fff"/><g transform="translate(16.251 0)"><g clip-path="url(#a)"><g transform="translate(18.621)" opacity="0.4"><g clip-path="url(#b)"><path d="M176.349,70.112c-21.566,6.3-34.519-8.73-34.519-8.73-3.669-.067-12.4,1.344-12.4,1.344l-8.865-23.277s7.453-4.75,10.145-7.247c0,0-.333-19.841,19.96-29.484A34,34,0,0,1,159.473,0L154.9,7.277l11.575,3.485-.726,11.328h2.467v3.291l6.94,2.313-.962,6.349,11.826-3.612,2.182,6.955,7.4-5.211,3.86,2.115,2.156-4.26c3.732,20.773-11.811,36.147-25.272,40.082" transform="translate(-120.567)" fill="#fadb1b"/></g></g><g transform="translate(18.621)" opacity="0.4"><g clip-path="url(#c)"><path d="M176.345,70.112c-21.566,6.3-34.519-8.73-34.519-8.73-3.669-.067-12.4,1.344-12.4,1.344l-8.865-23.277s7.453-4.75,10.145-7.247c0,0-.333-19.841,19.96-29.484A33.918,33.918,0,0,1,159.458,0L154.52,13.877,158.7,16,154.52,35.35l13.51,1,1.992,4.855L176,38.663l1.928,3.347,1.681-2.179,10.021,11,12.02-20.642c3.624,20.694-11.874,36-25.3,39.924" transform="translate(-120.563)" fill="#fadb1b"/></g></g></g></g><path d="M.088,20.948,34.128.145,33.257-1.28-.782,19.523Z" transform="translate(35.517 25.948)" fill="#fff"/><path d="M.03,7.3,39.28.167l-.3-1.643L-.268,5.656Z" transform="translate(39.606 51.033)" fill="#fff"/><path d="M235.8,95.206c1.3,0,2.277-.089,2.291-.09l-.052-.554a27.337,27.337,0,0,1-4.07.022c-2.658-.206-4.271-.862-4.666-1.9a3.6,3.6,0,0,1,.089-2.73,18.936,18.936,0,0,0,5.274-.311,13,13,0,0,0,2.683-.829,4.849,4.849,0,0,0,1.791-1.248,1.71,1.71,0,0,0,.334-1.758,2.257,2.257,0,0,0-2-1.415,6.654,6.654,0,0,0-3.06.506,11.239,11.239,0,0,0-4.513,3.175,6.985,6.985,0,0,0-.849,1.287q-.333-.037-.654-.089c-2.509-.4-4.193-1.42-4.743-2.862a4.221,4.221,0,0,1,.132-2.976,11.343,11.343,0,0,1,1.977-3.256q.167-.2.343-.4a9.539,9.539,0,0,0,1.519.277,13.022,13.022,0,0,0,5.627-.654c2.1-.8,2.973-2.117,2.4-3.614a1.854,1.854,0,0,0-1.526-1.218,4.731,4.731,0,0,0-2.35.376,16.955,16.955,0,0,0-5.847,4.2,5.071,5.071,0,0,1-.552-.217,2.156,2.156,0,0,1-1.194-1.094c-.585-1.535.861-3.341,2.177-4.586a21.842,21.842,0,0,1,3.129-2.416l-.291-.474a22.02,22.02,0,0,0-3.22,2.486,10.024,10.024,0,0,0-1.976,2.441,3.249,3.249,0,0,0-.339,2.748,2.679,2.679,0,0,0,1.478,1.4q.183.085.386.161-.1.113-.193.228a11.9,11.9,0,0,0-2.072,3.422,4.754,4.754,0,0,0-.129,3.364,4.28,4.28,0,0,0,1.968,2.162,9.443,9.443,0,0,0,3.206,1.051q.25.04.509.072-.088.234-.151.469a4.025,4.025,0,0,0,.115,2.519c.484,1.269,2.216,2.028,5.149,2.254C234.588,95.188,235.229,95.206,235.8,95.206Zm1.182-10.281a3.613,3.613,0,0,1,.427.024,1.712,1.712,0,0,1,1.546,1.06,1.153,1.153,0,0,1-.246,1.209A7.583,7.583,0,0,1,234.56,89.1a18.413,18.413,0,0,1-4.9.319,6.705,6.705,0,0,1,.679-.99,10.659,10.659,0,0,1,4.281-3.008A6.869,6.869,0,0,1,236.986,84.924ZM233.691,75.1a2.317,2.317,0,0,1,.357.026,1.293,1.293,0,0,1,1.092.867,1.621,1.621,0,0,1-.223,1.676,4.215,4.215,0,0,1-1.857,1.219,12.432,12.432,0,0,1-5.371.621,9.413,9.413,0,0,1-1.148-.189,16.185,16.185,0,0,1,5.44-3.848A4.961,4.961,0,0,1,233.691,75.1Z" transform="translate(-161.319 -44.1)" fill="#fff"/><rect width="31.201" height="17.172" transform="matrix(-0.356, -0.934, 0.934, -0.356, 28.782, 71.791)" fill="#e4ecf5"/><path d="M369.492,145.262c-3.694-.556-7.666-2.808-10.055-9.078s-.922-10.594,1.466-13.468Z" transform="translate(-341.968 -76.777)" fill="#e4edf6"/><path d="M367.514,145.262a11.566,11.566,0,0,1-3.187-.949l-6.108-20.66a11.21,11.21,0,0,1,.706-.937Z" transform="translate(-339.99 -76.777)" fill="#c8daec"/><path d="M330.172,130.181l-14.611-29.775,1.4-.533,14.611,29.775Z" transform="translate(-288.078 -62.485)" fill="#c8daec"/><path d="M341.488,134.492l-14.611-29.775,1.4-.533,14.611,29.775Z" transform="translate(-303.63 -65.183)" fill="#c8daec"/><path d="M352.8,138.8l-14.611-29.775,1.4-.533L354.2,138.27Z" transform="translate(-319.182 -67.88)" fill="#c8daec"/><path d="M246.726,36.055c.972.186,2.356-4.821,7.913-10.522,2.469-2.533,11.675-5.555,11.089-8.561s-8.8-.126-13.014,4.522c-6.775,7.481-6.882,14.389-5.987,14.56" transform="translate(-196.344 -9.849)" fill="#fff"/><path d="M178.815,159.943a1.636,1.636,0,0,0,3.056-1.164,1.636,1.636,0,0,0-3.056,1.164" transform="translate(-87.259 -98.705)" fill="#fff"/><path d="M192.782,160.6c-.41,1.387,6.392,4.771,13.034,4.935,5.511.136,11.669-1.825,11.518-3.271s-8.747.854-12.394.435c-4.6-.528-11.72-3.581-12.158-2.1" transform="translate(-127.875 -100.229)" fill="#fff"/><g transform="translate(118.275 38.18)" opacity="0.4"><g transform="translate(0)"><g clip-path="url(#d)"><path d="M2.974,134.912,0,131.6l3.145-2.64-2.026-8.2,6.786.456.861-11.5,5.195,2.985,4.36-5.252,2.861,1.114.834-2.145,9.6,4.465,6.947-8.884,4.78,6.436,0,0c-2.681,13.119-13.322,27.307-33.162,27.171l-.25,0a37.3,37.3,0,0,1-6.962-.686" transform="translate(0 -101.992)" fill="#fadb1b"/></g></g></g><g transform="translate(107.22 28.344)" opacity="0.4"><g clip-path="url(#e)"><path d="M13.889,118.437h0L.007,101,12.96,96.009l-1.325-2.2,3.562-.544-.185-6.054,4.9-.088,5.437-11.409L40.758,85.9l3.256-2.915,10.395,8.989c-2.678,13.121-13.315,27.318-33.163,27.183l-.25,0a37.232,37.232,0,0,1-7.106-.712" transform="translate(-0.007 -75.715)" fill="#fadb1b"/></g></g><rect width="145.373" height="71.791" transform="translate(16.251 0)" fill="none"/><rect width="145.373" height="71.791" transform="translate(16.251 0)" fill="none"/></g><path d="M308.8.489a1.781,1.781,0,0,0-2.451,0C305.068,1.706,298.67,8,298.67,12.469a8.906,8.906,0,0,0,17.812,0C316.482,8,310.084,1.706,308.8.489Z" transform="matrix(0.966, -0.259, 0.259, 0.966, -43.448, 338.009)" fill="#ccf2fe"/><ellipse cx="4.281" cy="4.281" rx="4.281" ry="4.281" transform="matrix(0.966, -0.259, 0.259, 0.966, 253.739, 267.373)" fill="#fff"/></g></svg>