<svg xmlns="http://www.w3.org/2000/svg" xmlns:xlink="http://www.w3.org/1999/xlink" width="203.175" height="159.713" viewBox="0 0 203.175 159.713"><defs><clipPath id="a"><path d="M100.821,163.407H226.558a6.394,6.394,0,0,1,6.337,6.337v88.145a6.394,6.394,0,0,1-6.337,6.337H100.821a6.393,6.393,0,0,1-6.337-6.337V169.744A6.3,6.3,0,0,1,100.821,163.407Z" transform="translate(36.068 94.108)" fill="#a3e0f5"/></clipPath></defs><g transform="translate(-96 -245.287)"><g transform="translate(96 211.811)"><path d="M6.035,70.91,145.022,33.75A8.293,8.293,0,0,1,155.1,39.511l27.51,102.116a8.117,8.117,0,0,1-5.905,9.938L37.721,188.725a8.293,8.293,0,0,1-10.082-5.761L.274,80.847A8.141,8.141,0,0,1,6.035,70.91Z" transform="translate(0)" fill="#e4e7e7"/><path d="M40.209,101.731l121.56-32.406a6.515,6.515,0,0,1,7.778,4.465L192.3,158.334a6.292,6.292,0,0,1-4.465,7.634L66.278,198.374a6.515,6.515,0,0,1-7.778-4.465L35.744,109.365A6.075,6.075,0,0,1,40.209,101.731Z" transform="translate(-22.508 -22.612)" fill="#18a7ec"/><path d="M71.186,131.9H215.934a8.206,8.206,0,0,1,8.21,8.21v107.3a8.206,8.206,0,0,1-8.21,8.21H71.186a8.206,8.206,0,0,1-8.21-8.21v-107.3A8.3,8.3,0,0,1,71.186,131.9Z" transform="translate(-39.946 -62.43)" fill="#f3f3f3"/><path d="M100.821,163.407H226.558a6.394,6.394,0,0,1,6.337,6.337v88.145a6.394,6.394,0,0,1-6.337,6.337H100.821a6.393,6.393,0,0,1-6.337-6.337V169.744A6.3,6.3,0,0,1,100.821,163.407Z" transform="translate(-59.931 -82.415)" fill="#d4f0fe"/><path d="M94.484,169.744v30.822c1.44.144,2.881.288,4.321.288a33.131,33.131,0,0,0,33.127-33.127c0-1.44-.144-2.881-.288-4.321H100.821A6.3,6.3,0,0,0,94.484,169.744Z" transform="translate(-59.931 -82.415)" fill="#f4876e"/><path d="M105,356.392a82.224,82.224,0,0,0-10.514.72V380.3a6.394,6.394,0,0,0,6.337,6.337h47.962a16.6,16.6,0,0,0,.432-3.745C149.215,368.2,129.483,356.392,105,356.392Z" transform="translate(-59.931 -204.826)" fill="#3db39e"/><path d="M272.836,320.945c-39.464,0-71.582,19.3-72.014,43.209h93.042a6.394,6.394,0,0,0,6.337-6.337V324.258A118.667,118.667,0,0,0,272.836,320.945Z" transform="translate(-127.382 -182.342)" fill="#4bc2ad"/><path d="M94.484,171.617v39.929c1.866.187,3.732.373,5.6.373A42.921,42.921,0,0,0,143,169c0-1.866-.187-3.732-.373-5.6H102.694A8.162,8.162,0,0,0,94.484,171.617Z" transform="translate(-59.931 -82.416)" fill="#f4876e"/></g><g transform="translate(0 35.287)" clip-path="url(#a)"><g transform="translate(-2236.019 -6799.233)"><g transform="translate(2407.97 7076.646)"><g transform="translate(0 0)"><g transform="translate(0 0)"><path d="M27.554,0S11.727,25.528,1.957,31s19.493,9.9,33.757,1.892S27.554,0,27.554,0Z" transform="translate(26.349 19.335) rotate(45)" fill="#1dacff"/><path d="M9.612,0s15.827,25.528,25.6,31-15.538,10.867-29.8,2.856S9.612,0,9.612,0Z" transform="translate(74.412 53.528) rotate(-60)" fill="#1dacff"/><rect width="90.793" height="93.63" rx="45.396" transform="translate(17.612)" fill="#1dacff"/><g transform="translate(19.643 2.604)"><path d="M-404.892,8935.433s11.628,3.31,18.3-3.747,6.664,17.051-2,22.836S-404.892,8935.433-404.892,8935.433Z" transform="translate(468.542 -8930.404)" fill="#1dacff"/><path d="M-382.5,8935.433s-11.283,3.31-17.759-3.747-6.466,17.051,1.94,22.836S-382.5,8935.433-382.5,8935.433Z" transform="translate(404.892 -8930.404)" fill="#1dacff"/></g><path d="M1.83,10.662c2.5,1.33,5.838.349,8.28-1.307S11.6,4.036,11.6,4.036A4.748,4.748,0,0,0,8.945.637a7.8,7.8,0,0,0-6.176,0,4.747,4.747,0,0,0-2.653,3.4S-.668,9.332,1.83,10.662Z" transform="matrix(-0.966, 0.259, -0.259, -0.966, 82.854, 106.665)" fill="#f9ce1b"/><path d="M1.83.621c2.5-1.33,5.838-.349,8.28,1.307S11.6,7.246,11.6,7.246a4.748,4.748,0,0,1-2.653,3.4,7.8,7.8,0,0,1-6.176,0,4.748,4.748,0,0,1-2.653-3.4S-.668,1.95,1.83.621Z" transform="matrix(0.966, 0.259, -0.259, 0.966, 47.374, 105.324)" fill="#f9ce1b"/><path d="M12.172,15.566a1.511,1.511,0,0,1-.709-.177L8.136,13.64a.066.066,0,0,0-.061,0L4.748,15.389a1.523,1.523,0,0,1-2.211-1.607l.635-3.7a.066.066,0,0,0-.019-.058L.462,7.4a1.524,1.524,0,0,1,.845-2.6l3.72-.54a.065.065,0,0,0,.049-.036L6.739.85a1.524,1.524,0,0,1,2.733,0L11.136,4.22a.066.066,0,0,0,.05.036L14.9,4.8a1.524,1.524,0,0,1,.845,2.6L13.058,10.02a.066.066,0,0,0-.019.058l.635,3.7a1.525,1.525,0,0,1-1.5,1.784" transform="translate(54.902 65.58)" fill="#7dcfff"/><path d="M9.4,12.021a1.167,1.167,0,0,1-.548-.137L6.283,10.534a.051.051,0,0,0-.047,0L3.667,11.885a1.177,1.177,0,0,1-1.708-1.241L2.45,7.783a.051.051,0,0,0-.015-.045L.357,5.712A1.177,1.177,0,0,1,1.009,3.7l2.873-.417a.05.05,0,0,0,.038-.028L5.2.656a1.177,1.177,0,0,1,2.111,0L8.6,3.259a.051.051,0,0,0,.038.028l2.872.417a1.177,1.177,0,0,1,.652,2.008L10.084,7.738a.051.051,0,0,0-.015.045l.491,2.861A1.178,1.178,0,0,1,9.4,12.021" transform="translate(75.303 61.342)" fill="#41b9ff" opacity="0"/><path d="M9.4,12.021a1.167,1.167,0,0,1-.548-.137L6.283,10.534a.051.051,0,0,0-.047,0L3.667,11.885a1.177,1.177,0,0,1-1.708-1.241L2.45,7.783a.051.051,0,0,0-.015-.045L.357,5.712A1.177,1.177,0,0,1,1.009,3.7l2.873-.417a.05.05,0,0,0,.038-.028L5.2.656a1.177,1.177,0,0,1,2.111,0L8.6,3.259a.051.051,0,0,0,.038.028l2.872.417a1.177,1.177,0,0,1,.652,2.008L10.084,7.738a.051.051,0,0,0-.015.045l.491,2.861A1.178,1.178,0,0,1,9.4,12.021" transform="translate(38.194 61.342)" fill="#41b9ff" opacity="0"/><g transform="translate(20.488 16.757)"><path d="M57.892,46.152c-4.268-1.172-8.2-4.354-11.119-8.3a5.564,5.564,0,0,0-3.961-1.868c-2.951.069-3.93,2.163-6.252,3.957a20.388,20.388,0,0,1-9.411,6.211C15.875,49.248,4.069,41.561.78,28.982S5.032,3.4,15.239.6c.219-.06.438-.114.657-.16L15.89.4A25.44,25.44,0,0,1,27.8,1.079c6.6,1.858,8.185,4.63,14.723,4.827,6.539-.2,8.123-2.969,14.723-4.827A25.443,25.443,0,0,1,69.151.4l-.007.043q.328.07.656.16C80.007,3.4,87.548,16.4,84.26,28.982c-2.8,10.7-11.75,17.856-21.3,17.855A19.109,19.109,0,0,1,57.892,46.152Z" transform="translate(0 0)" fill="#7dcfff"/><g transform="translate(2.46 3.991)"><g transform="translate(0 0)"><ellipse cx="19.017" cy="19.631" rx="19.017" ry="19.631" transform="translate(0 0)" fill="#fff"/><ellipse cx="19.017" cy="19.631" rx="19.017" ry="19.631" transform="translate(41.715 0)" fill="#fff"/></g><ellipse cx="8.682" cy="8.682" rx="8.682" ry="8.682" transform="translate(13.714 11.38)" fill="#002840"/><ellipse cx="3.652" cy="3.652" rx="3.652" ry="3.652" transform="translate(17.23 13.461)" fill="#fff"/><path d="M8.682,0A8.682,8.682,0,1,1,0,8.682,8.682,8.682,0,0,1,8.682,0Z" transform="translate(49.218 11.38)" fill="#002840"/><ellipse cx="3.652" cy="3.652" rx="3.652" ry="3.652" transform="translate(52.562 13.461)" fill="#fff"/></g></g></g><path d="M2.924,1.618a2.875,2.875,0,0,1,5.171,0l2.758,7.026c.611,1.558-.5,2.891-2.537,3.855a5.768,5.768,0,0,1-5.591,0C.687,11.535-.446,10.2.166,8.644Z" transform="translate(68.7 63.668) rotate(180)" fill="#f9ce1b"/></g><path d="M0,18.58H42.484l-5.047-12.6L27.762,0H16.4L7.151,2.76,2.1,10.118Z" transform="matrix(0.966, 0.259, -0.259, 0.966, 27.308, 14.323)" fill="#7dcfff"/><path d="M0,17.591H42.189L37.176,5.661,27.569,0H16.291L7.1,2.613,2.089,9.58Z" transform="matrix(0.966, -0.259, 0.259, 0.966, 58.821, 25.866)" fill="#7dcfff"/></g><ellipse cx="23.442" cy="4.197" rx="23.442" ry="4.197" transform="translate(2447.501 7206.815)" fill="#002840" opacity="0.15"/></g></g><path d="M16.563,0h4.831A16.563,16.563,0,0,1,37.956,16.563v0A16.563,16.563,0,0,1,21.393,33.125H6.625A6.625,6.625,0,0,1,0,26.5V16.563A16.563,16.563,0,0,1,16.563,0Z" transform="translate(261.219 303.277)" fill="#f4876e"/><rect width="4" height="17.705" rx="2" transform="translate(272.523 315.105) rotate(-45)" fill="#fff"/><rect width="4" height="17.705" rx="2" transform="translate(285.042 312.277) rotate(45)" fill="#fff"/><path d="M5.239,3.27a2,2,0,0,1,3.522,0l3.652,6.781A2,2,0,0,1,10.652,13h-7.3a2,2,0,0,1-1.761-2.948Z" transform="translate(181.038 326.503) rotate(135)" fill="#f4876e"/><rect width="4" height="17.705" rx="2" transform="translate(144.599 309.828) rotate(-45)" fill="#fff"/><rect width="4" height="17.705" rx="2" transform="translate(157.118 307) rotate(45)" fill="#fff"/></g></svg>