<svg xmlns="http://www.w3.org/2000/svg" xmlns:xlink="http://www.w3.org/1999/xlink" width="375" height="320" viewBox="0 0 375 320"><defs><clipPath id="a"><rect width="101.37" height="101.373" rx="50.685" transform="translate(0 0)" fill="#1dacff"/></clipPath><clipPath id="c"><rect width="35.815" height="27.996" fill="#465a7a"/></clipPath></defs><g transform="translate(0 -160)"><rect width="375" height="320" transform="translate(0 160)" fill="none"/><g transform="translate(5.288)"><ellipse cx="42.769" cy="4.686" rx="42.769" ry="4.686" transform="translate(65 408.669)" fill="#002840" opacity="0.15"/><ellipse cx="36.769" cy="4.686" rx="36.769" ry="4.686" transform="translate(257.688 408.669)" fill="#002840" opacity="0.15"/><g transform="translate(204.983 253.938)"><path d="M10.732,42.335S28.4,13.832,39.311,7.724,21.963-4.409,6.037,4.535,10.732,42.335,10.732,42.335Z" transform="matrix(-0.966, -0.259, 0.259, -0.966, 72.662, 117.719)" fill="#1ca3f2"/><path d="M2.043.693C4.833-.792,8.561.3,11.288,2.152S12.949,8.09,12.949,8.09a5.3,5.3,0,0,1-2.962,3.8,8.708,8.708,0,0,1-6.9,0A5.3,5.3,0,0,1,.131,8.09S-.746,2.177,2.043.693Z" transform="translate(65.661 143.595) rotate(30)" fill="#f9ce1b"/><path d="M0,22.287s12.982-3.695,20.435,4.183S27.874,7.433,18.2.974,0,22.287,0,22.287Z" transform="matrix(-0.966, -0.259, 0.259, -0.966, 90.653, 73.772)" fill="#1ca3f2"/><rect width="101.37" height="101.373" rx="50.685" transform="matrix(-0.966, -0.259, 0.259, -0.966, 130.78, 157.578)" fill="#1dacff"/><path d="M25,22.287s-12.6-3.695-19.828,4.183S-2.044,7.433,7.341.974,25,22.287,25,22.287Z" transform="translate(137.906 92.105) rotate(-150)" fill="#1dacff"/><path d="M11.111.693C8.322-.792,4.593.3,1.866,2.152S.2,8.09.2,8.09a5.3,5.3,0,0,0,2.962,3.8,8.708,8.708,0,0,0,6.9,0,5.3,5.3,0,0,0,2.962-3.8S13.9,2.177,11.111.693Z" transform="translate(101.795 146.761)" fill="#f9ce1b"/><path d="M11.334,0a1.225,1.225,0,0,0-.661.2L7.575,2.15a.053.053,0,0,1-.057,0L4.421.2A1.241,1.241,0,0,0,3.76,0,1.341,1.341,0,0,0,2.673.61a1.943,1.943,0,0,0-.311,1.382l.592,4.136a.083.083,0,0,1-.018.065L.43,9.122a1.932,1.932,0,0,0-.359,1.745,1.512,1.512,0,0,0,1.146,1.158l3.463.6a.063.063,0,0,1,.046.04l1.549,3.763a1.41,1.41,0,0,0,1.273.949,1.411,1.411,0,0,0,1.273-.949l1.549-3.763a.063.063,0,0,1,.046-.04l3.463-.6a1.512,1.512,0,0,0,1.146-1.158,1.933,1.933,0,0,0-.359-1.744L12.158,6.192a.083.083,0,0,1-.018-.065l.592-4.136A1.943,1.943,0,0,0,12.421.61,1.341,1.341,0,0,0,11.334,0" transform="matrix(-0.966, -0.259, 0.259, -0.966, 72.555, 130.077)" fill="#7dcfff"/><path d="M8.753,0a.946.946,0,0,0-.51.152L5.85,1.661a.041.041,0,0,1-.044,0L3.414.153A.958.958,0,0,0,2.9,0a1.036,1.036,0,0,0-.84.471,1.5,1.5,0,0,0-.24,1.067l.457,3.194a.064.064,0,0,1-.014.05L.332,7.044A1.492,1.492,0,0,0,.054,8.392a1.167,1.167,0,0,0,.885.894l2.675.466a.048.048,0,0,1,.036.031l1.2,2.906a1.089,1.089,0,0,0,.983.733,1.089,1.089,0,0,0,.983-.733l1.2-2.906a.049.049,0,0,1,.036-.031l2.675-.466a1.168,1.168,0,0,0,.885-.894,1.493,1.493,0,0,0-.277-1.347L9.389,4.782a.064.064,0,0,1-.014-.05l.457-3.194A1.5,1.5,0,0,0,9.593.471,1.035,1.035,0,0,0,8.753,0" transform="matrix(-0.966, -0.259, 0.259, -0.966, 56.456, 116.767)" fill="#41b9ff" opacity="0"/><path d="M8.753,0a.946.946,0,0,0-.51.152L5.85,1.661a.041.041,0,0,1-.044,0L3.414.153A.958.958,0,0,0,2.9,0a1.036,1.036,0,0,0-.84.471,1.5,1.5,0,0,0-.24,1.067l.457,3.194a.064.064,0,0,1-.014.05L.332,7.044A1.492,1.492,0,0,0,.054,8.392a1.167,1.167,0,0,0,.885.894l2.675.466a.048.048,0,0,1,.036.031l1.2,2.906a1.089,1.089,0,0,0,.983.733,1.089,1.089,0,0,0,.983-.733l1.2-2.906a.049.049,0,0,1,.036-.031l2.675-.466a1.168,1.168,0,0,0,.885-.894,1.493,1.493,0,0,0-.277-1.347L9.389,4.782a.064.064,0,0,1-.014-.05l.457-3.194A1.5,1.5,0,0,0,9.593.471,1.035,1.035,0,0,0,8.753,0" transform="matrix(-0.966, -0.259, 0.259, -0.966, 89.831, 125.71)" fill="#41b9ff" opacity="0"/><g transform="matrix(-0.966, -0.259, 0.259, -0.966, 130.78, 157.578)" clip-path="url(#a)"><path d="M27.6,40.636S11.746,12.8,1.96,6.831s19.525-10.8,33.812-2.064S27.6,40.636,27.6,40.636Z" transform="matrix(0.998, -0.07, 0.07, 0.998, -8.51, 23.611)" fill="#1ca3f2"/></g><path d="M30.764,41.6S13.093,13.1,2.185,6.994,23.949-4.063,39.875,4.881,30.764,41.6,30.764,41.6Z" transform="matrix(-0.966, -0.259, 0.259, -0.966, 145.431, 135.551)" fill="#1dacff"/><g transform="matrix(-0.966, -0.259, 0.259, -0.966, 130.78, 157.578)" clip-path="url(#a)"><path d="M56.295.8c-4.15,1.363-7.969,5.064-10.813,9.653a5.119,5.119,0,0,1-3.852,2.173c-2.87-.08-3.821-2.516-6.079-4.6C32.955,4.581,29.787,1.91,26.4.8,15.437-2.8,3.957,6.137.759,20.767s4.135,29.749,14.06,33.009c.213.07.426.132.639.187l-.007.05a20.823,20.823,0,0,0,11.579-.794c6.418-2.161,7.959-5.385,14.317-5.614,6.358.229,7.9,3.452,14.317,5.614a20.825,20.825,0,0,0,11.579.794l-.007-.05q.319-.082.638-.186C77.8,50.515,85.133,35.4,81.936,20.766,79.217,8.326,70.51,0,61.223,0A15.746,15.746,0,0,0,56.295.8Z" transform="translate(24.841 28.192)" fill="#7dcfff"/></g><g transform="matrix(-0.966, -0.259, 0.259, -0.966, 110.723, 118.878)"><g transform="translate(0 0)"><ellipse cx="18.025" cy="23.009" rx="18.025" ry="23.009" transform="translate(0)" fill="#fff"/><ellipse cx="18.025" cy="23.009" rx="18.025" ry="23.009" transform="translate(39.539 0)" fill="#fff"/></g><ellipse cx="8.229" cy="10.176" rx="8.229" ry="10.176" transform="translate(14.857 16.395)" fill="#002840"/><ellipse cx="3.462" cy="4.281" rx="3.462" ry="4.281" transform="translate(18.19 25.747)" fill="#fff"/><path d="M8.229,20.352c4.545,0,8.229-4.556,8.229-10.176S12.774,0,8.229,0,0,4.556,0,10.176,3.684,20.352,8.229,20.352Z" transform="translate(51.128 17.564)" fill="#002840"/><ellipse cx="3.462" cy="4.281" rx="3.462" ry="4.281" transform="translate(54.297 26.916)" fill="#fff"/></g><path d="M3.264,12.956a3.21,3.21,0,0,0,5.774,0l3.079-7.845c.683-1.739-.563-3.228-2.832-4.3a6.44,6.44,0,0,0-6.243,0C.767,1.883-.5,3.372.185,5.111Z" transform="matrix(0.545, 0.839, -0.839, 0.545, 76.175, 91.516)" fill="#f9ce1b"/><rect width="47.979" height="53.523" transform="translate(0 0)" fill="none"/></g><path d="M304.136-7.25a1.228,1.228,0,0,1,1.689,0c.884.839,5.122,9.985,5.122,13.069a6.139,6.139,0,1,1-12.277,0C298.67,2.735,303.252-6.411,304.136-7.25Z" transform="translate(32.555 338.504)" fill="#7dcfff"/><ellipse cx="2.625" cy="3.072" rx="2.625" ry="3.072" transform="translate(350.364 340.689)" fill="#fff"/><g transform="translate(0.424 236.15)"><path d="M277.356,332.257a20.245,20.245,0,0,1-6.02,1.829c.521-.051,9.761-.87,10.087,3.995.336,5.005-10.278,4.606-13.807,4.72-1,.033-2.3.049-3.708-.013-3.555-.16-7.749-.838-9.262-3.1s.945-4.183,2.448-6.528a5.531,5.531,0,0,0,1.037-3.094c-.1-4.736.072-9.991-7.948-16.5l11.248-13.213,1.835-2.155c8.525.953,19.212,4.572,21.484,19.411,1.295,8.453-3.246,12.623-7.394,14.646" transform="translate(-139.024 -164.379)" fill="#46af4d"/><path d="M132.36,7.192,120.123,27.24,93.533,96.258,56.5,122.911l-49.1-11.5L0,102.147l1.469-1.054,3.977-2.85s.863-.615,1.445-.41.884,1.229.884,1.229l1.5,5.915.507,2,1.62-.994,6.173-3.787a2.16,2.16,0,0,1,1.56-.221c.668.272,1.113,1.308,1.113,1.308l3.221,7.266,1.023,2.307.881-1.848,2.617-5.487s.338-.679.864-.694a2.453,2.453,0,0,1,1.241.633l7.064,6.069,2.589,2.224,1.069-2.764,3.031-7.835s.283-.737.862-.865a2.715,2.715,0,0,1,1.455.353l7.752,3.72,3,1.441V95.578s-.03-.994.443-1.383a2.071,2.071,0,0,1,1.45-.171l9.137,1.361,2.947.439-.643-3.19L68.42,83.521s-.122-.9.253-1.285,1.249-.268,1.249-.268l7.3.487,2.613.175L78.86,79.7l-3.213-9.678a2.287,2.287,0,0,1,.167-1.333,1.828,1.828,0,0,1,1.072-.638l9.064-1.483,2.715-.443L87.541,63.4,83.365,53.29a1.916,1.916,0,0,1,0-1.084,1.145,1.145,0,0,1,.774-.482L94.211,50.1l2.816-.456-1.168-2.613L90.9,35.929a1.539,1.539,0,0,1-.082-1c.182-.362.812-.445.812-.445L104.879,31.8l3.305-.669-.862-3.02L103.45,14.538a1.641,1.641,0,0,1,0-.926c.168-.294.671-.251.671-.251l12.839,2.057,2.986.479.416-4.185.985-10.079s-.112-1.442.4-1.614,1.634.927,1.634.927l6.209,4.319Z" transform="matrix(0.985, 0.174, -0.174, 0.985, 30.746, 0)" fill="#ffdc64"/><path d="M132.36,1.928,120.123,21.976,93.533,90.994,56.5,117.647l-49.1-11.5L0,96.883l1.469-1.054c2.051,1.018,4.439,2.248,7.02,3.5h0l.788.381.507,2,1.62-.994a77.057,77.057,0,0,0,11.8,4.492c.09.024.181.05.272.073l1.023,2.307.881-1.848a31.011,31.011,0,0,0,3.336.536,41.262,41.262,0,0,0,8.45-.016l2.589,2.224,1.069-2.764a47.417,47.417,0,0,0,13.1-4.627l3,1.441v-3.15a49.19,49.19,0,0,0,6.889-5.108,49.808,49.808,0,0,0,4.141-4.157l2.947.439-.643-3.19A100.371,100.371,0,0,0,77.22,77.19l2.613.175-.973-2.93C81.033,70.7,83.377,66.37,85.95,61.3l2.715-.443-1.124-2.722q1.029-2.07,2.107-4.292,2.25-4.64,4.563-9.013l2.816-.456-1.168-2.613c2.988-5.481,6.019-10.584,9.02-15.228l3.305-.669-.862-3.02a137.837,137.837,0,0,1,9.638-12.693l2.986.479.416-4.185a54.723,54.723,0,0,1,4.069-3.79A16.049,16.049,0,0,1,129.586,0Z" transform="matrix(0.985, 0.174, -0.174, 0.985, 29.831, 5.184)" fill="#ffc850"/><path d="M30.92,17.8a2.646,2.646,0,0,1-1.808.829c-4.224.377-3.621-5.054-7.618-3.243l-.112.051c-3.956,1.841-7.713,6.172-13.69,2.287a19.976,19.976,0,0,1-6.28-6.5A14.705,14.705,0,0,1,0,8.221L7.693,0c3.469,6.033,5.958,10.861,11.313,8.9.509-.186.979-.374,1.418-.558,4.183-1.755,5.437-3.193,8.236-.121,2.5,2.749,4.019,7.624,2.261,9.58" transform="matrix(0.985, 0.174, -0.174, 0.985, 128.313, 101.641)" fill="#78c961"/><path d="M26.2,10.013c-2.5-1.707-3.651-1.273-5.509.121q-.132-.909-.272-1.792c-.439.184-.909.371-1.418.558C13.65,10.861,11.162,6.033,7.693,0L0,8.221a14.705,14.705,0,0,0,1.413,3,19.968,19.968,0,0,0,6.28,6.5c5.977,3.885,9.735-.445,13.69-2.287l.112-.051c4-1.811,3.393,3.62,7.617,3.243A2.647,2.647,0,0,0,30.92,17.8c.262-2.415-2.048-5.967-4.716-7.787" transform="matrix(0.985, 0.174, -0.174, 0.985, 128.313, 101.641)" fill="#46af4d"/><path d="M200.4,35.075c0,.014,0,.026,0,.04-1.467,14.333-3.252,24.458-6.276,27.529a3.925,3.925,0,0,1-.56.478c-3.368,2.343-12.594,0-12.594,0a22.92,22.92,0,0,1-.142,2.5c0,.006,0,.013,0,.019-.009.073-.018.143-.028.215,0,.018,0,.036-.008.054-.008.059-.017.117-.026.175s-.018.116-.028.173c-.041.24-.089.474-.144.7-.034.14-.07.277-.112.411-.014.049-.029.1-.044.144-.006.022-.013.043-.021.064-.02.062-.042.125-.064.186s-.047.128-.072.191v0c-.025.061-.049.122-.076.182s-.04.093-.061.138c-.008.015-.014.031-.021.045-.029.061-.057.12-.087.179s-.059.115-.091.171-.079.141-.121.211l-.083.132c-.071.111-.146.218-.226.323-.039.053-.08.105-.122.157s-.084.1-.128.153-.085.1-.13.143l-.005.005c-.045.049-.093.1-.141.145l-.017.017-.132.125c-.042.039-.085.077-.13.116-.066.057-.135.115-.205.171-.047.037-.094.074-.142.109l-.035.026c-.049.037-.1.073-.151.109s-.121.083-.185.124-.118.076-.179.113a9.655,9.655,0,0,1-1.743.822l-.229.082q-.483.166-1.027.313l-.175.047c-.118.03-.238.061-.36.089l-.117.028-.093.021c-.183.043-.373.083-.567.123l-.179.036q-.6.118-1.261.22-.33.051-.678.1-.578.079-1.2.146l-.507.053-.029,0c-.248.024-.5.048-.762.07l-.395.033q-.12.011-.241.019-1.209.093-2.574.159c-.789.038-1.592.056-2.4.056q-.558,0-1.117-.012c-12.365-.254-24.932-4.516-29.646-4.045a27.884,27.884,0,0,1,1.337,3.8A107.044,107.044,0,0,1,136.6,87.054c.205,1.477.4,3,.571,4.56q.164,1.465.308,2.966c.279,2.895.5,5.875.64,8.866.638,13.273-.2,26.762-3.907,33.88a12.8,12.8,0,0,1-1.968,2.863c-3.394,3.621-7.04,5.573-18,5.813q-1.14.025-2.388.025c-1.38,0-2.863-.023-4.461-.068-4.147-.117-9.062-.387-14.932-.813l-.734-.054c-14.383-1.059-24.169-2.855-31.032-4.9h0c-6.131-1.824-10.364-3.014-22.363-10.1s-15.094-8.306-24.887-16.956S-1.447,97.862.36,95.927c.455-.487,1.964-.01,4.191,1,2.51,1.139,5.934,2.956,9.784,4.828h0a87.4,87.4,0,0,0,14.71,5.878,34.4,34.4,0,0,0,5.511,1.068,41.437,41.437,0,0,0,9.745-.171,47.289,47.289,0,0,0,17.171-5.95,49.526,49.526,0,0,0,8.184-5.88,52.379,52.379,0,0,0,5.793-6.1,104.107,104.107,0,0,0,8.933-13.2c2.653-4.52,5.56-9.937,8.832-16.506q1.11-2.228,2.278-4.635,2.988-6.164,6.083-11.847h0c3.7-6.8,7.461-13.019,11.157-18.508h0A131.486,131.486,0,0,1,124.5,10.677a60.7,60.7,0,0,1,5.78-5.6,18,18,0,0,1,6.634-3.108C152-2.246,181.819.821,192.022,6.277c12.075,6.456,9.936,13.628,8.38,28.8" transform="matrix(0.985, 0.174, -0.174, 0.985, 25.357, 4.351)" fill="#78c961"/><path d="M21.209,67.176c-3.095,3.3-6.4,5.215-15.266,5.709-1.533.085-3.234.128-5.127.128A96.31,96.31,0,0,1,3.788,33.5c.751-2.611,1.477-5,2.193-7.2a78.812,78.812,0,0,1,5.438-13.27A39.074,39.074,0,0,1,22.8,0a116.4,116.4,0,0,1,3.131,16.868c.4,3.318.737,6.817.971,10.372,1.072,16.334.047,33.81-5.7,39.936" transform="matrix(0.985, 0.174, -0.174, 0.985, 122.026, 95.535)" fill="#94ea7f"/><path d="M.444,0,0,4.556s-.04.548.2.731.751,0,.751,0L7.121,1.942,3.933,0Z" transform="matrix(0.985, 0.174, -0.174, 0.985, 161.567, 85.083)" fill="#fff"/><path d="M0,.952,1.2,5.284s.179.514.5.6.775-.242.775-.242L6.761,1.834,3.38,0Z" transform="matrix(0.985, 0.174, -0.174, 0.985, 183.331, 93.855)" fill="#fff"/><path d="M227.341,298.042c8.49,1.227,19.055,5.188,20.847,20.092s-13.961,16.037-13.961,16.037,9.8-.7,9.976,4.315-10.421,4.273-13.952,4.273-10.857-.3-12.863-3.531,3.75-5.575,3.793-9.505c.053-4.736.394-9.984-7.412-16.743Z" transform="translate(-117.089 -164.284)" fill="#78c961"/><path d="M2.142,4.912A1.785,1.785,0,0,0,3.434,3.748a2.436,2.436,0,0,0-.107-1.774A3.873,3.873,0,0,0,2.2.566,2.26,2.26,0,0,0,1.088.017C-.549-.188.081,1.55.323,2.407c.294,1.041.12,2.831,1.819,2.5" transform="matrix(0.985, 0.174, -0.174, 0.985, 213.337, 58.13)" fill="#46af4d"/><path d="M2.924.236A2.438,2.438,0,0,0,.734.284,1.932,1.932,0,0,0,.041,2.247a3.943,3.943,0,0,0,1.1,1.881,4.457,4.457,0,0,0,2.47,1.462A2.321,2.321,0,0,0,6.065,4.42a2.285,2.285,0,0,0-.074-1.866C5.373,1.21,4.233.726,2.924.236" transform="matrix(0.985, 0.174, -0.174, 0.985, 192.918, 49.902)" fill="#ffc850"/><path d="M201,16.324c-1.452-2.351-3.827-4.419-7.564-6.417C183.238,4.452,153.42,1.384,138.33,5.6A18.011,18.011,0,0,0,131.7,8.711a60.7,60.7,0,0,0-5.78,5.6,131.458,131.458,0,0,0-11.762,15.234h0c-3.7,5.49-7.459,11.71-11.156,18.508h0q-3.083,5.67-6.083,11.847-1.168,2.409-2.278,4.635C91.362,71.1,88.455,76.519,85.8,81.039a104.107,104.107,0,0,1-8.933,13.2,52.346,52.346,0,0,1-5.794,6.1,49.508,49.508,0,0,1-8.184,5.88,47.277,47.277,0,0,1-17.171,5.95,41.4,41.4,0,0,1-9.745.171,34.39,34.39,0,0,1-5.511-1.067,87.435,87.435,0,0,1-14.71-5.878h0c-3.85-1.872-7.273-3.689-9.784-4.828-2.227-1.009-3.737-1.487-4.191-1a1.053,1.053,0,0,0-.265.663C.2,98.25-.386,96.629.27,95.927c.455-.487,1.964-.01,4.191,1,2.51,1.139,5.934,2.956,9.784,4.828h0a87.4,87.4,0,0,0,14.71,5.878,34.357,34.357,0,0,0,5.511,1.068,41.416,41.416,0,0,0,9.745-.171,47.281,47.281,0,0,0,17.171-5.95,49.526,49.526,0,0,0,8.184-5.88,52.378,52.378,0,0,0,5.793-6.1,104.107,104.107,0,0,0,8.933-13.2c2.653-4.52,5.56-9.937,8.832-16.506q1.11-2.228,2.278-4.635,2.988-6.164,6.083-11.847h0c3.7-6.8,7.461-13.019,11.156-18.508h0a131.454,131.454,0,0,1,11.762-15.234,60.7,60.7,0,0,1,5.78-5.6,18.011,18.011,0,0,1,6.634-3.108c15.09-4.218,44.908-1.151,55.111,4.305,5.542,2.963,8.089,6.078,9.073,10.047" transform="matrix(0.985, 0.174, -0.174, 0.985, 25.445, 4.366)" fill="#46af4d"/><path d="M.007,5.221a3.663,3.663,0,0,0,.77,2.652,3.138,3.138,0,0,0,3.242.722,5.7,5.7,0,0,0,2.72-2.129A5.042,5.042,0,0,0,7.91,3.082,3.414,3.414,0,0,0,5.918.335C2.645-1.093.15,2.334.007,5.221" transform="matrix(0.985, 0.174, -0.174, 0.985, 200.816, 52.825)" fill="#ffc850"/><path d="M9.958,9.009a4.578,4.578,0,0,0,3.983-.15A4.12,4.12,0,0,0,15.353,3.91,6.33,6.33,0,0,0,11.212.43a14.308,14.308,0,0,0-5.55-.3,8.393,8.393,0,0,0-4.1,1.224A3.329,3.329,0,0,0,.181,5.113,3.367,3.367,0,0,0,3.022,6.974C4.14,7.085,5.638,6.3,6.616,6.84,7.791,7.484,8.655,8.5,9.958,9.009" transform="matrix(0.985, 0.174, -0.174, 0.985, 191.871, 40.183)" fill="#ffdc64"/><path d="M5.456,0A5.456,5.456,0,1,1,0,5.456,5.456,5.456,0,0,1,5.456,0" transform="matrix(0.985, 0.174, -0.174, 0.985, 161.719, 46.916)" fill="#28193f"/><path d="M.647,0A.647.647,0,1,1,0,.647.647.647,0,0,1,.647,0" transform="matrix(0.985, 0.174, -0.174, 0.985, 165.012, 49.7)" fill="#fff"/><path d="M.647,0A.647.647,0,1,1,0,.647.647.647,0,0,1,.647,0" transform="matrix(0.985, 0.174, -0.174, 0.985, 165.277, 51.426)" fill="#fff"/><path d="M6.827,1.906,3.182,5.794a1.267,1.267,0,0,1-.782.3c-.348-.055-.611-.519-.611-.519L0,1.137,3.413,0Z" transform="matrix(0.985, 0.174, -0.174, 0.985, 172.295, 88.8)" fill="#fff"/><path d="M1.381,0A1.381,1.381,0,1,1,0,1.381,1.381,1.381,0,0,1,1.381,0" transform="matrix(0.985, 0.174, -0.174, 0.985, 167.632, 49.694)" fill="#fff"/><path d="M44.815,28.006s9.226,2.343,12.594,0S62.69,15.2,64.246,0L13.968.8A14.21,14.21,0,0,0,.007,14.194a4.366,4.366,0,0,0,3,4.4l2.812.919c13.861,7.833,24.337,5.462,38.993,8.494" transform="matrix(0.985, 0.174, -0.174, 0.985, 153.936, 60.233)" fill="#78c961"/><path d="M40.006,0A1.018,1.018,0,0,0,39.8.021a116.951,116.951,0,0,1-13.554,1.8C17.839,2.6,9.9,3.322.514,8.626a1.012,1.012,0,1,0,1,1.761C10.516,5.3,17.891,4.622,26.43,3.84A118.6,118.6,0,0,0,40.21,2a1.012,1.012,0,0,0-.2-2" transform="translate(158.244 76.259) rotate(30)" fill="#46af4d"/><path d="M1.012,8.754A1.012,1.012,0,0,1,.449,6.9C3.14,5.1,4.273,3.231,3.915,1.186A1.011,1.011,0,1,1,5.907.837c.505,2.877-.953,5.483-4.333,7.746a1.006,1.006,0,0,1-.562.171" transform="matrix(0.985, 0.174, -0.174, 0.985, 151.409, 78.68)" fill="#46af4d"/><path d="M48.364,0c0,.006,0,.013,0,.019-.01.072-.018.143-.029.215,0,.018,0,.036-.007.054-.008.059-.017.117-.027.175s-.018.116-.028.174q-.061.36-.144.7c-.033.14-.072.277-.111.411-.014.048-.029.1-.045.144-.006.022-.014.043-.021.064-.02.062-.042.125-.064.186s-.046.128-.072.192v0c-.025.061-.049.122-.076.182s-.04.093-.061.138c-.007.015-.014.03-.021.045-.028.061-.057.12-.087.179s-.059.115-.091.172-.079.141-.121.211c-.027.044-.054.088-.083.132-.072.111-.146.218-.226.323-.039.052-.08.105-.122.157s-.084.1-.128.153-.085.1-.13.143l-.005.006c-.045.049-.093.1-.141.145l-.017.017c-.043.042-.086.083-.132.125s-.085.077-.13.116c-.066.056-.135.115-.205.17-.046.037-.094.074-.142.11l-.035.026c-.049.037-.1.073-.151.109s-.121.083-.184.124-.118.076-.179.113a9.672,9.672,0,0,1-1.743.822l-.229.082q-.483.166-1.027.313l-.175.046c-.118.031-.238.061-.36.089l-.117.029-.094.021c-.183.043-.373.083-.566.123l-.179.036q-.6.119-1.261.22c-.22.034-.446.066-.678.1q-.578.079-1.2.146c-.166.018-.336.036-.507.052l-.028,0c-.248.024-.5.049-.762.071l-.395.033c-.08.007-.16.014-.241.019q-1.209.094-2.574.159-1.184.057-2.4.056c-.371,0-.744,0-1.117-.012C17.322,7.383,4.755,3.121.041,3.591.03,3.555-.021,3.5.01,3.481c1.833-1.3,5.153-.676,6.62-.547,6.579.572,15.642,2.228,27.433,1.661C43.045,4.163,46.825,2.871,48.364,0" transform="matrix(0.985, 0.174, -0.174, 0.985, 144.41, 91.977)" fill="#46af4d"/><path d="M6.137,4.231a2.657,2.657,0,0,0-.146-.4C5.373,2.489,4.233,2,2.924,1.515a2.436,2.436,0,0,0-2.19.049,1.651,1.651,0,0,0-.639.9c-.02-.072-.038-.145-.053-.219A1.93,1.93,0,0,1,.733.284,2.436,2.436,0,0,1,2.924.236c1.31.489,2.449.975,3.067,2.318a2.356,2.356,0,0,1,.146,1.678" transform="matrix(0.985, 0.174, -0.174, 0.985, 192.918, 49.902)" fill="#ffc850"/><path d="M7.866,4.058A3.421,3.421,0,0,0,5.918,1.614C2.785.247.366,3.328.038,6.124a5.218,5.218,0,0,1-.031-.9C.15,2.334,2.644-1.094,5.918.335A3.412,3.412,0,0,1,7.91,3.082a3.547,3.547,0,0,1-.044.976" transform="matrix(0.985, 0.174, -0.174, 0.985, 200.817, 52.826)" fill="#ffc850"/><path d="M15.608,6.152a4.218,4.218,0,0,0-.256-.964,6.332,6.332,0,0,0-4.14-3.479,14.285,14.285,0,0,0-5.55-.3,8.4,8.4,0,0,0-4.1,1.223A3.811,3.811,0,0,0,.078,4.8,3.438,3.438,0,0,1,1.565,1.353,8.391,8.391,0,0,1,5.662.129a14.308,14.308,0,0,1,5.55.3,6.332,6.332,0,0,1,4.14,3.479,4.4,4.4,0,0,1,.256,2.243" transform="matrix(0.985, 0.174, -0.174, 0.985, 191.872, 40.184)" fill="#ffc850"/></g><path d="M-4379.916,9739.67" transform="translate(4562 -9395)" fill="none"/><path d="M5.935,0C11,5.385,14.756,9.764,19.809,6.424S25.592.606,29.62,3.355,36.913,12.575,32.64,14s-4.98-4.334-8.668-1.484-6.494,8.375-13.691,5.8A20.248,20.248,0,0,1,0,10.383Z" transform="translate(126.891 337.33) rotate(30)" fill="#78c961"/><ellipse cx="2.907" cy="3.402" rx="2.907" ry="3.402" transform="matrix(0.966, -0.259, 0.259, 0.966, 335.125, 341.228)" fill="#fff"/><path d="M0,30.79C0,47.8,14.9,61.582,33.274,61.582S66.549,47.8,66.549,30.79,51.651,0,33.274,0,0,13.785,0,30.79" transform="translate(216.942 204.36)" fill="#e6f3ff"/><path d="M-4299.427,9637.9s1.956,5.288,0,9.814-7.684,5.063-5.863,6.883,29.909-.062,31.865-4.589S-4299.427,9637.9-4299.427,9637.9Z" transform="matrix(0.985, -0.174, 0.174, 0.985, 2781.651, -9988.32)" fill="#e6f3ff"/><g transform="translate(233.309 223.309)"><g clip-path="url(#c)"><path d="M132.764,192.883a3.524,3.524,0,1,0,4.984,0,3.525,3.525,0,0,0-4.984,0" transform="translate(-117.348 -170.903)" fill="#465a7a"/><path d="M96.363,124.551a10.8,10.8,0,0,0-7.687,3.185,2.063,2.063,0,1,0,2.917,2.917,6.744,6.744,0,0,1,9.54,0,2.063,2.063,0,1,0,2.917-2.917,10.8,10.8,0,0,0-7.687-3.185" transform="translate(-78.455 -110.951)" fill="#465a7a"/><path d="M57.177,62.345a17.548,17.548,0,0,0-12.491,5.174A2.063,2.063,0,1,0,47.6,70.436a13.538,13.538,0,0,1,19.147,0,2.063,2.063,0,0,0,2.917-2.917,17.545,17.545,0,0,0-12.489-5.174" transform="translate(-39.269 -55.537)" fill="#465a7a"/><path d="M35.212,7.169A24.469,24.469,0,0,0,.6,7.169a2.063,2.063,0,1,0,2.917,2.917,20.343,20.343,0,0,1,28.773,0,2.063,2.063,0,0,0,2.918-2.917" transform="translate(0)" fill="#465a7a"/></g></g><path d="M23.883,4A19.386,19.386,0,0,0,9.869,10.006a20.659,20.659,0,0,0-4.29,6.573,21.491,21.491,0,0,0,0,16.168,20.659,20.659,0,0,0,4.29,6.573,19.353,19.353,0,0,0,28.029,0,20.659,20.659,0,0,0,4.29-6.573,21.491,21.491,0,0,0,0-16.168,20.659,20.659,0,0,0-4.29-6.573A19.386,19.386,0,0,0,23.883,4m0-4c13.19,0,23.883,11.042,23.883,24.664S37.074,49.327,23.883,49.327,0,38.285,0,24.664,10.693,0,23.883,0Z" transform="translate(226.833 210.648)" fill="#f4876e"/><path d="M-4440.314,9760.535l-2.565-3.07,34.146-28.534,2.564,3.07Z" transform="translate(4674.74 -9508.846)" fill="#f4876e"/><g transform="matrix(0.966, -0.259, 0.259, 0.966, -64.759, 46.478)"><rect width="19.645" height="32.742" rx="4" transform="translate(201 349)" fill="#465a7a"/><rect width="15.279" height="27.376" rx="2" transform="translate(203.183 351.682)" fill="#566e94"/><path d="M0,0H8A0,0,0,0,1,8,0V.183a2,2,0,0,1-2,2H2a2,2,0,0,1-2-2V0A0,0,0,0,1,0,0Z" transform="translate(206.821 351.183)" fill="#465a7a"/></g></g></g></svg>