<svg xmlns="http://www.w3.org/2000/svg" xmlns:xlink="http://www.w3.org/1999/xlink" width="375" height="320" viewBox="0 0 375 320"><defs><clipPath id="a"><rect width="126.569" height="126.573" rx="63.285" transform="translate(0 0)" fill="#1dacff"/></clipPath><clipPath id="b"><rect width="125.534" height="125.538" rx="62.767" transform="translate(0 0)" fill="#7dcfff"/></clipPath></defs><g transform="translate(0 -160)"><g transform="translate(0 219.558)"><rect width="375" height="320" transform="translate(0 -59.558)" fill="none"/><g transform="translate(48.442 -11.045)"><g transform="translate(152.258 19.268)"><path d="M40.047,64.453l64.5,37.238V38.514l-64.5-37.24Z" transform="translate(-31.185 1.425)" fill="#efc58b"/><path d="M35.864,35.4l66.11,38.183,10.565-6.1L46.416,29.309Z" transform="translate(-35.864 32.803)" fill="#f7e6bb"/><path d="M69.615,48.92l-2.556,4.5V55.04l10.565-6.1V47.322Z" transform="translate(-0.948 52.965)" fill="#c79d5c"/><path d="M101.975,70.365,35.864,32.182V33.8l66.11,38.183Z" transform="translate(-35.864 36.02)" fill="#efc58b"/><path d="M47.83,1.571,42.442,7.706l-5.175-.038-1.4-.807L46.427.762Z" transform="translate(-35.863 0.851)" fill="#c84030"/><path d="M36.525,67.735l10.554-6.093.011-60.5-10.562,6.1Z" transform="translate(-35.124 1.279)" fill="#c79d5c"/><path d="M35.864,64.13l1.4.812V4.447l-1.4-.807Z" transform="translate(-35.864 4.073)" fill="#efc58b"/><path d="M66.4,24.493l1.4.81,5.175.036,5.391-6.133-1.405-.812Z" transform="translate(-1.689 20.587)" fill="#c84030"/><path d="M67.059,24.874V85.369l10.552-6.093.013-60.5Z" transform="translate(-0.948 21.016)" fill="#c79d5c"/><path d="M66.4,81.764l1.4.812V22.082l-1.4-.81Z" transform="translate(-1.69 23.809)" fill="#efc58b"/><path d="M69.617,19.662l-2.558,4.661V26l10.565-6.31V18.012Z" transform="translate(-0.949 20.16)" fill="#c79d5c"/><path d="M46.416,0,35.864,6.093l66.11,38.176,10.565-6.1Z" transform="translate(-35.864 0)" fill="#e5b675"/><path d="M101.975,41.053,35.864,2.875V4.5l66.11,38.179Z" transform="translate(-35.864 3.217)" fill="#efc58b"/></g><ellipse cx="49.486" cy="5.856" rx="49.486" ry="5.856" transform="translate(71.043 164.973)" fill="#002840" opacity="0.15"/><path d="M18.407,0s30.31,47.823,49.019,58.073S37.671,78.43,10.355,63.422,18.407,0,18.407,0Z" transform="translate(100.526 92.125) rotate(-33)" fill="#1ca3f2"/><path d="M2.531,14.741c3.454,1.838,8.072.483,11.448-1.807s2.058-7.353,2.058-7.353-.616-3.525-3.668-4.7a10.783,10.783,0,0,0-8.539,0C.778,2.056.162,5.581.162,5.581S-.924,12.9,2.531,14.741Z" transform="translate(166.19 170.572) rotate(180)" fill="#f9ce1b"/><path d="M0,6.953s16.077,4.575,25.306-5.181,9.213,23.576-2.764,31.574S0,6.953,0,6.953Z" transform="matrix(0.966, -0.259, 0.259, 0.966, 112.492, 57.681)" fill="#1ca3f2"/><path d="M62.766,0h0a62.766,62.766,0,0,1,62.766,62.766c0,29.846-11.8,49.66-39.962,56.084-4.259.972-5.465,1.374-13.482.172s-13-2.639-25.8-6.179c-8.227-2.276-19.909-5.778-21.723-6.416-5.081-1.787-7.743-3.915-8.54-4.7C4.75,90.544,0,80.2,0,62.766A62.766,62.766,0,0,1,62.766,0Z" transform="matrix(0.966, -0.259, 0.259, 0.966, 39.252, 73.578)" fill="#1dacff"/><path d="M30.963,6.953s-15.6,4.575-24.555-5.181-8.94,23.576,2.682,31.574S30.963,6.953,30.963,6.953Z" transform="matrix(0.966, -0.259, 0.259, 0.966, 51.617, 73.992)" fill="#1dacff"/><path d="M2.53.858C5.985-.98,10.6.375,13.979,2.665s2.058,7.353,2.058,7.353-.616,3.525-3.668,4.7a10.783,10.783,0,0,1-8.539,0c-3.052-1.175-3.668-4.7-3.668-4.7S-.924,2.7,2.53.858Z" transform="translate(119.562 164.973)" fill="#f9ce1b"/><path d="M14.035,21.522a1.517,1.517,0,0,1-.818-.244L9.381,18.859a.065.065,0,0,0-.071,0L5.475,21.278a1.537,1.537,0,0,1-.818.245,1.661,1.661,0,0,1-1.347-.755,2.407,2.407,0,0,1-.385-1.711l.733-5.122a.1.1,0,0,0-.022-.08l-3.1-3.627a2.393,2.393,0,0,1-.445-2.16A1.872,1.872,0,0,1,1.506,6.632L5.8,5.885a.078.078,0,0,0,.057-.05L7.77,1.175A1.746,1.746,0,0,1,9.346,0a1.747,1.747,0,0,1,1.576,1.175l1.918,4.66a.078.078,0,0,0,.057.05l4.289.747A1.872,1.872,0,0,1,18.6,8.066a2.393,2.393,0,0,1-.445,2.16l-3.1,3.628a.1.1,0,0,0-.022.08l.733,5.122a2.407,2.407,0,0,1-.385,1.711,1.66,1.66,0,0,1-1.347.755" transform="matrix(0.966, -0.259, 0.259, 0.966, 138.087, 139.568)" fill="#7dcfff"/><path d="M10.839,16.621a1.171,1.171,0,0,1-.632-.189L7.245,14.565a.05.05,0,0,0-.054,0L4.228,16.432a1.187,1.187,0,0,1-.632.189,1.282,1.282,0,0,1-1.04-.583,1.859,1.859,0,0,1-.3-1.321l.566-3.956a.08.08,0,0,0-.017-.062L.411,7.9A1.848,1.848,0,0,1,.067,6.229a1.446,1.446,0,0,1,1.1-1.108l3.312-.577a.06.06,0,0,0,.044-.038L6,.907A1.349,1.349,0,0,1,7.218,0,1.349,1.349,0,0,1,8.435.907l1.481,3.6a.06.06,0,0,0,.044.038l3.312.577a1.446,1.446,0,0,1,1.1,1.108A1.848,1.848,0,0,1,14.024,7.9l-2.4,2.8a.079.079,0,0,0-.017.062l.566,3.956a1.859,1.859,0,0,1-.3,1.321,1.282,1.282,0,0,1-1.04.583" transform="matrix(0.966, -0.259, 0.259, 0.966, 160.893, 135.644)" fill="#7dcfff" opacity="0"/><path d="M10.839,16.621a1.171,1.171,0,0,1-.632-.189L7.245,14.565a.05.05,0,0,0-.054,0L4.228,16.432a1.187,1.187,0,0,1-.632.189,1.282,1.282,0,0,1-1.04-.583,1.859,1.859,0,0,1-.3-1.321l.566-3.956a.08.08,0,0,0-.017-.062L.411,7.9A1.848,1.848,0,0,1,.067,6.229a1.446,1.446,0,0,1,1.1-1.108l3.312-.577a.06.06,0,0,0,.044-.038L6,.907A1.349,1.349,0,0,1,7.218,0,1.349,1.349,0,0,1,8.435.907l1.481,3.6a.06.06,0,0,0,.044.038l3.312.577a1.446,1.446,0,0,1,1.1,1.108A1.848,1.848,0,0,1,14.024,7.9l-2.4,2.8a.079.079,0,0,0-.017.062l.566,3.956a1.859,1.859,0,0,1-.3,1.321,1.282,1.282,0,0,1-1.04.583" transform="matrix(0.966, -0.259, 0.259, 0.966, 119.562, 146.718)" fill="#7dcfff" opacity="0"/><g transform="matrix(0.966, -0.259, 0.259, 0.966, 38.252, 71.707)" clip-path="url(#a)"><path d="M35.161,0S14.654,31.573,2.49,38.63s23.269,11.081,41.03.748S35.161,0,35.161,0Z" transform="matrix(0.899, 0.438, -0.438, 0.899, -3.963, 33.836)" fill="#1ca3f2"/></g><path d="M38.1,0S16.214,35.3,2.705,42.861,29.657,56.554,49.38,45.477,38.1,0,38.1,0Z" transform="translate(43.431 97.316)" fill="#1dacff"/><g transform="matrix(0.966, 0.259, -0.259, 0.966, 55.497, 12.949)"><g transform="translate(0 62.767) rotate(-30)" clip-path="url(#b)"><g transform="translate(27.62 15.803)"><path d="M71.015,66.165c-5.234-1.68-10.053-6.243-13.64-11.9-1.335-1.471-2.644-2.619-4.86-2.679-3.621.1-4.82,3.1-7.669,5.672-3.275,4.24-7.271,7.533-11.545,8.9C19.473,70.6,4.991,59.583.957,41.549S6.173,4.877,18.694.859c.268-.086.538-.163.806-.23L19.491.567S25.7-1.218,34.1,1.546c8.1,2.665,10.04,6.639,18.06,6.921,8.021-.282,9.965-4.256,18.061-6.921,8.4-2.764,14.607-.979,14.607-.979l-.008.062q.4.1.805.23c12.521,4.019,21.771,22.657,17.736,40.691-3.43,15.334-14.413,25.6-26.127,25.6A20.285,20.285,0,0,1,71.015,66.165Z" transform="translate(0 0)" fill="#7dcfff"/></g></g><g transform="translate(39.737 65.276) rotate(-30)"><ellipse cx="22.784" cy="27.487" rx="22.784" ry="27.487" transform="translate(0)" fill="#fff"/><ellipse cx="22.784" cy="27.487" rx="22.784" ry="27.487" transform="translate(49.977 0)" fill="#fff"/></g><path d="M4.042,2.237c1.171-2.983,5.979-2.983,7.15,0l3.813,9.715c.845,2.154-.7,4-3.507,5.33a7.975,7.975,0,0,1-7.731,0C.95,15.949-.617,14.106.229,11.952Z" transform="translate(119.035 78.352) rotate(108)" fill="#f9ce1b"/><path d="M9.707,0c5.361,0,9.707,5.374,9.707,12s-4.346,12-9.707,12S0,18.633,0,12,4.346,0,9.707,0Z" transform="translate(109.314 55.42) rotate(-30)" fill="#002840"/><ellipse cx="4.083" cy="5.049" rx="4.083" ry="5.049" transform="translate(113.99 56.041) rotate(-30)" fill="#fff"/></g><ellipse cx="9.707" cy="12.004" rx="9.707" ry="12.004" transform="matrix(0.966, -0.259, 0.259, 0.966, 101.766, 104.084)" fill="#002840"/><ellipse cx="4.083" cy="5.049" rx="4.083" ry="5.049" transform="matrix(0.966, -0.259, 0.259, 0.966, 106.308, 105.845)" fill="#fff"/><g transform="translate(143.409 139.161)"><path d="M.933,48.339,61.684,63.506l71.627-17.882L72.555,30.456Z" transform="translate(-0.26 -16.937)" fill="#d9af6f"/><path d="M1.3,36.207V50.948L74.718,32.616V17.882Z" transform="translate(0.259 -17.492)" fill="#c79d5c"/><path d="M.654,55.3l1.557.389L5.123,37.594,2.212,35.449.654,35.06Z" transform="translate(-0.654 -16.734)" fill="#c79d5c"/><path d="M.654,35.833l1.557.39L75.63,17.9l-1.557-.39Z" transform="translate(-0.654 -17.508)" fill="#f7e6bb"/><path d="M56.861,46.922l-2.907-12.6,2.907-2.146,1.56-.388v14.74Z" transform="translate(74.727 -16.879)" fill="#c84030"/><path d="M31.064,18.254V32.989l58.17,14.529V32.777Z" transform="translate(42.354 -17.475)" fill="#efc58b"/><path d="M89.234,32.793,31.064,18.27l1.557-.388L90.794,32.4Z" transform="translate(42.354 -17.492)" fill="#f7e6bb"/><path d="M27.1,49.36l-2.909,2.146L27.1,64.1l1.557-.389V48.971Z" transform="translate(32.631 -16.122)" fill="#c84030"/><path d="M1.3,55.7l58.172,14.53V49.957L1.3,35.433Z" transform="translate(0.259 -16.718)" fill="#c79d5c"/><path d="M59.472,49.973,1.3,35.45l1.557-.39L61.029,49.584Z" transform="translate(0.258 -16.734)" fill="#f7e6bb"/><path d="M25.394,69.638l1.557.389,2.909-18.151-2.909-2.143-1.557-.389Z" transform="translate(34.335 -16.105)" fill="#c79d5c"/><path d="M26.04,50.456V70.784l73.418-18.3V32.164Z" transform="translate(35.248 -16.862)" fill="#c79d5c"/><path d="M26.952,50.507,100.373,32.18l-1.56-.388L25.395,50.117Z" transform="translate(34.335 -16.879)" fill="#f7e6bb"/></g><path d="M0,25.8c0,14.247,13.421,25.8,29.976,25.8s29.976-11.55,29.976-25.8S46.531,0,29.976,0,0,11.549,0,25.8" transform="translate(6.562 0.001)" fill="#e6f3ff"/><path d="M0,279.3a4.529,4.529,0,1,0,4.529-4.529A4.529,4.529,0,0,0,0,279.3" transform="translate(66.513 -220.551)" fill="#e6f3ff"/><path d="M7.984,282c.383,1.423,2.121,2.191,3.881,1.717s2.876-2.012,2.493-3.435-2.121-2.191-3.881-1.717S7.6,280.573,7.984,282" transform="translate(59.474 -223.435)" fill="#fff"/><path d="M22.683,198.572a6.517,6.517,0,1,0,6.517-6.517,6.517,6.517,0,0,0-6.517,6.517" transform="translate(27.29 -148.037)" fill="#e6f3ff"/><path d="M34.172,202.454c.552,2.047,3.051,3.153,5.584,2.471s4.138-2.895,3.586-4.942-3.051-3.153-5.584-2.471-4.138,2.895-3.586,4.942" transform="translate(17.161 -152.187)" fill="#fff"/><path d="M117.228,67.56a1.774,1.774,0,0,1-1.6,1.169,8.822,8.822,0,0,1-3.163.1,1.744,1.744,0,0,1-1.764-1.617,8.893,8.893,0,0,1,.2-3.1,7.467,7.467,0,0,1,1-2.31,6.044,6.044,0,0,1,1.417-1.494,15.251,15.251,0,0,1,1.533-.99q.747-.417,1.32-.805a1.992,1.992,0,0,0,.786-.97,1.632,1.632,0,0,0,.078-.805,1.672,1.672,0,0,0-.4-.864,2.589,2.589,0,0,0-1.009-.689,4.532,4.532,0,0,0-1.737-.281,12.982,12.982,0,0,0-1.659.126,17.934,17.934,0,0,0-2.009.388,13.274,13.274,0,0,0-1.725.456c-.679.252-2.744.433-3.4-.689a6.086,6.086,0,0,1-.307-4.163,4.063,4.063,0,0,1,2.294-2.591,14.486,14.486,0,0,1,1.989-.815,17.6,17.6,0,0,1,2.368-.592,15.427,15.427,0,0,1,2.756-.233,15.134,15.134,0,0,1,4.512.66,11.115,11.115,0,0,1,3.716,1.941,9.322,9.322,0,0,1,2.523,3.154,9.528,9.528,0,0,1,.932,4.3,7.034,7.034,0,0,1-.524,2.96,5.54,5.54,0,0,1-1.339,1.834,7.966,7.966,0,0,1-1.824,1.2q-1.009.485-1.97,1.058a8.5,8.5,0,0,0-1.766,1.407,5.443,5.443,0,0,0-1.232,2.251" transform="translate(-78.694 -37.245)" fill="#e76254"/><path d="M130.443,166.7a4.057,4.057,0,1,1-4.057-4.057,4.057,4.057,0,0,1,4.057,4.057" transform="translate(-92.028 -128.718)" fill="#e76254"/><path d="M134.451,168.712a2.637,2.637,0,1,1-1.947-2.683,2.371,2.371,0,0,1,1.947,2.683" transform="translate(-97.428 -130.679)" fill="#f4876e"/><path d="M131.455,55.42s4.356.065,6.174,2.686-1.506,4.635-2.718,5.634-1.146,1.818.131,2.063,6.321-2.931,6.354-6.452-3.228-6.55-7.959-6.878-3.787,2.726-1.981,2.948" transform="translate(-95.979 -40.317)" fill="#f4876e"/><rect width="59.951" height="66.879" transform="translate(0 1.802)" fill="none"/></g></g><path d="M-3430.013,9787.411l-8.756-11.766" transform="translate(3674.16 -9401.494)" fill="none"/><path d="M-3417.427,9782.846v-18.419" transform="translate(3675 -9399.435)" fill="none"/><path d="M-3405.661,9787.411l6.02-12.313" transform="translate(3678.661 -9402.494)" fill="none"/></g></svg>