<svg xmlns="http://www.w3.org/2000/svg" xmlns:xlink="http://www.w3.org/1999/xlink" width="152.307" height="129.59" viewBox="0 0 152.307 129.59"><defs><clipPath id="a"><rect width="152.307" height="129.59" fill="none"/></clipPath><clipPath id="c"><rect width="96.89" height="11.499" fill="none"/></clipPath><clipPath id="d"><rect width="28.863" height="48.524" fill="none"/></clipPath><clipPath id="e"><rect width="21.615" height="17.265" fill="none"/></clipPath><clipPath id="f"><rect width="21.191" height="13.984" fill="none"/></clipPath></defs><g clip-path="url(#a)"><g clip-path="url(#a)"><g transform="translate(27.952 118.091)" opacity="0.15" style="isolation:isolate"><g clip-path="url(#c)"><path d="M80.045,133.5c26.754,0,48.445,2.574,48.445,5.75S106.8,145,80.045,145,31.6,142.425,31.6,139.25s21.689-5.75,48.445-5.75" transform="translate(-31.6 -133.5)" fill="#002840"/></g></g><path d="M142.965,53.779s10.46,35.474,20.968,44.86-29.164,6.591-44.5-7.143,23.527-37.717,23.527-37.717" transform="translate(-13.373 -6.207)" fill="#1dacff"/><path d="M22.715,53.783S12.255,89.256,1.748,98.644s29.163,6.59,44.5-7.143S22.715,53.783,22.715,53.783" transform="translate(0 -6.208)" fill="#1dacff"/><path d="M77.7,0h.535a61.92,61.92,0,0,1,61.921,61.92V82.266a39.806,39.806,0,0,1-39.807,39.806H55.587A39.806,39.806,0,0,1,15.781,82.266V61.92A61.92,61.92,0,0,1,77.7,0" transform="translate(-1.822)" fill="#1dacff"/><path d="M117.5,10.921s15.929,4.533,25.072-5.131,9.129,23.358-2.742,31.283S117.5,10.921,117.5,10.921" transform="translate(-13.562 -0.466)" fill="#1dacff"/><path d="M49.6,10.921S34.147,15.455,25.278,5.791,16.42,29.149,27.931,37.074,49.6,10.921,49.6,10.921" transform="translate(-2.185 -0.466)" fill="#1dacff"/><path d="M90.206,124.962a2.074,2.074,0,0,1-.974-.242l-4.556-2.4a.088.088,0,0,0-.084,0l-4.557,2.4a2.087,2.087,0,0,1-3.03-2.2l.87-5.075a.086.086,0,0,0-.026-.08l-3.687-3.594a2.088,2.088,0,0,1,1.157-3.561l5.1-.74a.089.089,0,0,0,.067-.05l2.279-4.617a2.088,2.088,0,0,1,3.744,0l2.279,4.617a.089.089,0,0,0,.068.049l5.1.74a2.087,2.087,0,0,1,1.157,3.561l-3.687,3.594a.089.089,0,0,0-.026.08l.87,5.075a2.089,2.089,0,0,1-1.705,2.413,2.13,2.13,0,0,1-.351.03" transform="translate(-8.487 -11.962)" fill="#7dcfff"/><path d="M44.046,21.954c13.07-3.6,26.449,11.536,33.774,21.985S73.745,76.326,59.307,80.293,29.747,74.416,25.532,58.308s5.441-32.765,18.513-36.353" transform="translate(-2.832 -2.472)" fill="#7dcfff"/><path d="M47.53,21.672a32.64,32.64,0,0,1,15.249.874c8.767,2.466,10.623,6.192,19.814,6.192-.039.011,0,22.905,0,22.905H52.277Z" transform="translate(-5.486 -2.443)" fill="#7dcfff"/><path d="M120.882,21.95c-13.07-3.6-26.449,11.536-33.774,21.985s4.074,32.382,18.512,36.353,29.56-5.874,33.774-21.984-5.441-32.762-18.512-36.353" transform="translate(-9.791 -2.471)" fill="#7dcfff"/><path d="M120.061,21.672a32.64,32.64,0,0,0-15.249.874C96.044,25.012,94.189,28.738,85,28.738c.039.011,0,22.905,0,22.905h30.321Z" transform="translate(-9.811 -2.443)" fill="#7dcfff"/><path d="M93.947,76.464c-4.315-2.433-5.276-6.091-9.7-6.192-4.423.1-5.385,3.76-9.7,6.192-4.375,2.469-7.607.876-7.607.876L69.3,47.361H99.19l2.368,29.977a6.62,6.62,0,0,1-2.707.506,9.925,9.925,0,0,1-4.9-1.381" transform="translate(-7.727 -5.467)" fill="#7dcfff"/><path d="M54.537,28.151c12.827,0,23.227,10.734,23.227,23.976S67.364,76.1,54.537,76.1,31.31,65.37,31.31,52.127s10.4-23.976,23.227-23.976" transform="translate(-3.614 -3.249)" fill="#fff"/><path d="M112.134,28.151c12.828,0,23.227,10.734,23.227,23.976S124.962,76.1,112.134,76.1,88.907,65.37,88.907,52.127s10.4-23.976,23.227-23.976" transform="translate(-10.262 -3.249)" fill="#fff"/><path d="M88.923,88.019c-1.16,2.955-5.927,2.955-7.085,0L78.06,78.394c-.838-2.134.692-3.96,3.475-5.281a7.9,7.9,0,0,1,7.66,0c2.793,1.321,4.345,3.146,3.507,5.281Z" transform="translate(-8.984 -8.325)" fill="#f9ce1b"/><g transform="translate(13.793 55.411)" opacity="0"><g clip-path="url(#d)"><path d="M42.428,105.257c7.443,5.7-6.9,7.524-22.058,4.375a37.017,37.017,0,0,1-2.129-9.072L15.916,78.526A57.6,57.6,0,0,1,16.4,62.845l.252-.2s14.66,34.1,25.779,42.616" transform="translate(-15.593 -62.641)" fill="#1ca3f2"/></g></g><path d="M125.907,59.595A15.215,15.215,0,1,1,110.693,44.38a15.215,15.215,0,0,1,15.215,15.215" transform="translate(-11.02 -5.123)" fill="#002840"/><path d="M118.685,56.162a2.78,2.78,0,1,1-2.78-2.779h0a2.78,2.78,0,0,1,2.779,2.779" transform="translate(-13.057 -6.162)" fill="#fff"/><path d="M113.854,65.455a5.787,5.787,0,1,1-5.787-5.787,5.787,5.787,0,0,1,5.787,5.787" transform="translate(-11.806 -6.887)" fill="#fff"/><g transform="translate(91.995 66.582)" opacity="0.88" style="isolation:isolate"><g clip-path="url(#e)"><path d="M125.613,83.9c0,4.768-4.839,8.633-10.809,8.633S104,88.67,104,83.9s4.839-8.633,10.808-8.633,10.808,3.865,10.808,8.633" transform="translate(-103.999 -75.27)" fill="#c1e8ff"/></g></g><g transform="translate(91.993 69.862)" opacity="0.8" style="isolation:isolate"><g clip-path="url(#f)"><path d="M116.711,90c-5.969,0-10.808-3.865-10.808-8.633a7.034,7.034,0,0,1,.424-2.394A7.591,7.591,0,0,0,104,84.33c0,4.768,4.839,8.633,10.808,8.633,4.929,0,9.085-2.636,10.383-6.24A11.94,11.94,0,0,1,116.71,90" transform="translate(-103.997 -78.978)" fill="#a2ddff"/></g></g><path d="M100.576,28.813s7.151,24.068,36.6,19.347c-.242.4.056-10.2.056-10.2s-5.158-9.473-5.529-10.209-13.819-5.982-13.819-5.982Z" transform="translate(-11.609 -2.512)" fill="#7dcfff"/><path d="M73.386,57.826A15.092,15.092,0,1,1,58.294,42.734,15.091,15.091,0,0,1,73.386,57.826Z" transform="translate(-4.987 -4.933)" fill="#002840"/><path d="M68.055,54.241a2.779,2.779,0,1,1-2.78-2.779h0a2.78,2.78,0,0,1,2.779,2.779" transform="translate(-7.214 -5.94)" fill="#fff"/><path d="M63.224,63.533a5.787,5.787,0,1,1-5.787-5.787,5.787,5.787,0,0,1,5.787,5.787" transform="translate(-5.962 -6.665)" fill="#fff"/><path d="M28.9,49.839s24.417,5.849,35.06-22.01c.224.41-8.807-5.153-8.807-5.153s-10.782-.273-11.6-.319-12.093,8.972-12.093,8.972Z" transform="translate(-3.336 -2.581)" fill="#7dcfff"/><path d="M128.424,120.331c-3.778-.873-7.85,1.609-10.493,4.667s-.079,7.565-.079,7.565,1.491,3.219,4.712,3.558a10.682,10.682,0,0,0,8.173-2.191c2.62-1.905,2.3-5.439,2.3-5.439s-.839-7.286-4.617-8.159" transform="translate(-13.474 -13.869)" fill="#f9ce1b"/><path d="M41.61,120.332c3.775-.876,7.85,1.609,10.494,4.667s.078,7.565.078,7.565-1.494,3.215-4.716,3.557a10.684,10.684,0,0,1-8.173-2.191c-2.616-1.906-2.3-5.438-2.3-5.438s.839-7.286,4.617-8.159" transform="translate(-4.268 -13.869)" fill="#f9ce1b"/><g transform="translate(36.341 64.401)" opacity="0.88" style="isolation:isolate"><g clip-path="url(#e)"><path d="M62.7,81.437c0,4.768-4.839,8.633-10.809,8.633S41.083,86.2,41.083,81.437,45.923,72.8,51.891,72.8,62.7,76.669,62.7,81.437" transform="translate(-41.083 -72.804)" fill="#c1e8ff"/></g></g><g transform="translate(36.34 67.681)" opacity="0.8" style="isolation:isolate"><g clip-path="url(#f)"><path d="M53.8,87.538c-5.969,0-10.809-3.865-10.809-8.633a7.056,7.056,0,0,1,.424-2.394,7.59,7.59,0,0,0-2.33,5.352c0,4.768,4.838,8.633,10.807,8.633,4.929,0,9.085-2.636,10.383-6.24A11.936,11.936,0,0,1,53.8,87.538" transform="translate(-41.082 -76.512)" fill="#a2ddff"/></g></g></g></g></svg>